<?xml version="1.0" encoding="utf-8"?>
<!-- Generator: Adobe Illustrator 23.0.3, SVG Export Plug-In . SVG Version: 6.00 Build 0)  -->
<svg version="1.1" id="Layer_1" xmlns="http://www.w3.org/2000/svg" xmlns:xlink="http://www.w3.org/1999/xlink" x="0px" y="0px"
	 viewBox="0 0 337.2 306.7" enable-background="new 0 0 337.2 306.7" xml:space="preserve">
<g>
	<g>
		<path fill="#FFCE08" d="M26.4,234.4l56.2,38.3l24.5-0.8c8.2-0.3,21.7-0.7,30-0.9l79.1-2.5c0,0-87.1-33.5-87.1-33.5
			c-3.1-1.2-6.5-1.1-9.6,0.1c-7.4,3.1-38.7,16.3-38.7,16.3L69,256.7C69,256.7,26.4,234.4,26.4,234.4z"/>
	</g>
	<g>
		<path fill="#28B9EC" d="M236,64.8l-5.9,189.7c0,0,0,0,0,0c0,0-26.2-68.2-33.5-87.1c-1.2-3.1-1.1-6.5,0.2-9.5L236,64.8
			C236,64.8,236,64.8,236,64.8z"/>
	</g>
	<g>
		<polygon fill="#50B748" points="190.4,167.6 230.2,268.4 129.2,229 132.7,170.9 		"/>
	</g>
</g>
<path fill="#777777" d="M66.8,35.2c9.7,3.1,18.3,7.3,25,14.8c12.3,13.5,12.1,29.2,7.8,45.5c-3.2,12.1-9.7,22.6-16.1,33.1
	c-4.6,7.5-9,15.4-12.1,23.6c-6.1,16.1-2.4,30.8,8.2,44.1c2.3,2.8,4.7,5.5,7.7,9c-3.4-0.6-6.1-0.9-8.7-1.5c-15-3.9-28-11.3-38.4-22.9
	c-14.6-16.3-17.9-34.7-10-55.1c3.1-8.1,8-15.2,13.1-22.1c7.4-10.1,15.1-19.9,22.3-30.1c2.9-4.1,4.9-8.8,6.9-13.4
	c1.9-4.4,1.5-9-0.3-13.4C70.5,43,68.7,39.4,66.8,35.2z"/>
<path fill="#777777" d="M27.5,0c4.9,1.6,9.2,3.7,12.5,7.4c6.1,6.8,6.1,14.6,3.9,22.8c-1.6,6.1-4.8,11.3-8.1,16.6
	c-2.3,3.8-4.5,7.7-6.1,11.8c-3,8.1-1.2,15.5,4.1,22.1c1.1,1.4,2.4,2.8,3.9,4.5c-1.7-0.3-3-0.4-4.3-0.8c-7.5-2-14.1-5.7-19.3-11.5
	c-7.3-8.2-9-17.4-5-27.7c1.6-4.1,4-7.6,6.6-11.1c3.7-5.1,7.6-10,11.2-15.1c1.4-2,2.4-4.4,3.4-6.7c1-2.2,0.8-4.5-0.2-6.7
	C29.3,3.9,28.4,2.1,27.5,0z"/>
<g>
	<path fill="#F05624" d="M102.7,282.2c6.2,3.9,12.5,8,18.2,9.5c6.2,1.6,11.6,0.6,17.3-0.5c5.9-1.1,12-2.3,19.2-0.5
		c4.1,1,8.6,2.8,13,4.5c6.8,2.7,13.8,5.4,19.1,5.4c7,0,20.9-6.5,34.2-12.8c14.9-7,29-13.6,36.5-13c2.7,0.2,5.3,0.9,7.9,1.8l-17.1-76
		l-5.9-128.3c0,0,0,0,0,0l-1.8-14.9c0,0-5.9,218-5.9,218l-139.3,3.8C99.6,280.3,101.1,281.3,102.7,282.2z"/>
	<path fill="#F05624" d="M67.5,279.9c3.3-2.3,6.8-4.3,10.5-5.6C55.1,264.3,8,243.7,8,243.7l50,25C58,268.7,63,274.6,67.5,279.9z"/>
</g>
<path fill="none" stroke="#444444" stroke-width="3" stroke-linecap="round" stroke-miterlimit="10" d="M1.5,299.2
	c41-4,25.2,6.8,47.8-4.7C58,290,68.8,276.3,82,273.7c9.7-1.9,26.1,15,39.5,18.5c13,3.5,22.9-4.4,36.5-1c10.3,2.6,23.4,10,32.5,10
	c15.1,0,56.7-26.9,70.6-25.8c15.1,1.2,28,14.9,40,17c12.7,2.2,24.3-7.1,34.6-4"/>
<path fill="none" stroke="#444444" stroke-width="3" stroke-linecap="round" stroke-miterlimit="10" d="M262.5,290.7
	c16.3,0,29.5,4.7,29.5,10.5"/>
<path fill="none" stroke="#444444" stroke-width="3" stroke-linecap="round" stroke-miterlimit="10" d="M61.5,305.2
	c0-5,9.2-9,20.5-9s15.9,7,20.5,9"/>
</svg>
