<svg id="Layer_1" data-name="Layer 1" xmlns="http://www.w3.org/2000/svg" viewBox="0 0 385.83 183.11"><title>logo</title><path d="M109.47,174.75,6.11,94.25C3,91.8.38,93.06.38,97.05V172a7.29,7.29,0,0,0,7.26,7.27h100.3C111.93,179.22,112.62,177.21,109.47,174.75Z" transform="translate(-0.38 -0.36)" fill="#2bbaec"/><path d="M150.7,57.9a3.2,3.2,0,0,0,2.34-1,3.26,3.26,0,0,0,1-2.36v-14a.94.94,0,0,1,.22-.62l3.29-4.38c.13-.18.26-.18.39,0l12.74,20.68a3.08,3.08,0,0,0,2.81,1.64,3.37,3.37,0,0,0,2.91-5.15l-14.1-23a.48.48,0,0,1,0-.57l14-19.13a3.19,3.19,0,0,0,.68-2,3.23,3.23,0,0,0-1-2.36,3.27,3.27,0,0,0-2.43-1,3.09,3.09,0,0,0-2.67,1.37l-16.44,22.4c-.23.27-.34.25-.34-.07V8.05a3.26,3.26,0,0,0-1-2.36,3.17,3.17,0,0,0-2.34-1,3.25,3.25,0,0,0-2.41,1,3.26,3.26,0,0,0-1,2.36v46.5a3.36,3.36,0,0,0,3.39,3.35Z" transform="translate(-0.38 -0.36)" fill="#4b5b5f"/><path d="M198.33,58a12.67,12.67,0,0,0,6.6-1.82,12.34,12.34,0,0,0,4.7-4.89,3.42,3.42,0,0,0,.41-1.65,3.28,3.28,0,0,0-1-2.36,3.21,3.21,0,0,0-2.4-1,3.13,3.13,0,0,0-2.94,1.78,5.8,5.8,0,0,1-5.41,3.22h-.28a6.2,6.2,0,0,1-6.16-6.16V41.74c0-.23.14-.34.41-.34h15.55a3.2,3.2,0,0,0,2.39-1,3.4,3.4,0,0,0,1-2.44V30.85a12.52,12.52,0,0,0-3.77-9.14,12.35,12.35,0,0,0-9.1-3.8h-.28a12.37,12.37,0,0,0-9.11,3.8,12.51,12.51,0,0,0-3.76,9.14V45.17A12.85,12.85,0,0,0,198.05,58ZM191.89,30.9a6.07,6.07,0,0,1,1.81-4.45,5.91,5.91,0,0,1,4.35-1.83h.28a5.9,5.9,0,0,1,4.34,1.83,6.08,6.08,0,0,1,1.82,4.45v3.44c0,.23-.14.35-.41.35H192.3c-.27,0-.41-.12-.41-.35Z" transform="translate(-0.38 -0.36)" fill="#4b5b5f"/><path d="M231.47,54.54A3.22,3.22,0,0,0,230,51.73a7.81,7.81,0,0,1-3.76-6.92V8.05a3.28,3.28,0,0,0-1-2.36,3.33,3.33,0,0,0-4.76,0,3.23,3.23,0,0,0-1,2.36V44.81a14.06,14.06,0,0,0,6.78,12.54,3.34,3.34,0,0,0,4.21-.44A3.23,3.23,0,0,0,231.47,54.54Z" transform="translate(-0.38 -0.36)" fill="#4b5b5f"/><path d="M267.83,21.45a3.28,3.28,0,0,0-1-2.39,3.15,3.15,0,0,0-2.35-1,3.09,3.09,0,0,0-3.2,2.41L254,43.13c-.16.32-.29.31-.39,0l-7.31-22.67a3.11,3.11,0,0,0-3.23-2.39,3.21,3.21,0,0,0-2.38,1,3.29,3.29,0,0,0-1,2.39,3.92,3.92,0,0,0,.14,1.05l10.75,33.07a3.33,3.33,0,0,0,6.37-.06l10.75-33A3.92,3.92,0,0,0,267.83,21.45Z" transform="translate(-0.38 -0.36)" fill="#4b5b5f"/><path d="M279.82,18.05a3.4,3.4,0,0,0-3.36,3.36V54.54a3.18,3.18,0,0,0,1,2.4,3.38,3.38,0,0,0,4.72,0,3.21,3.21,0,0,0,1-2.4V21.41a3.27,3.27,0,0,0-1-2.37A3.23,3.23,0,0,0,279.82,18.05Z" transform="translate(-0.38 -0.36)" fill="#4b5b5f"/><path d="M279.82,12.64a3.89,3.89,0,0,0,2.84-1.2,3.89,3.89,0,0,0,1.2-2.84,3.86,3.86,0,0,0-1.2-2.88,4.06,4.06,0,0,0-5.68,0,3.86,3.86,0,0,0-1.2,2.88,3.89,3.89,0,0,0,1.2,2.84A3.86,3.86,0,0,0,279.82,12.64Z" transform="translate(-0.38 -0.36)" fill="#4b5b5f"/><path d="M297.59,56.7a3.3,3.3,0,0,0,1-2.43V30.85a6.23,6.23,0,0,1,6.2-6.23h.27a6.21,6.21,0,0,1,6.2,6.23V54.27a3.33,3.33,0,0,0,1,2.43,3.17,3.17,0,0,0,2.34,1,3.25,3.25,0,0,0,2.41-1,3.33,3.33,0,0,0,1-2.43V30.85A13,13,0,0,0,305,17.91h-.27a12.35,12.35,0,0,0-9.11,3.8,12.52,12.52,0,0,0-3.77,9.14V54.27a3.3,3.3,0,0,0,1,2.43,3.3,3.3,0,0,0,4.73,0Z" transform="translate(-0.38 -0.36)" fill="#4b5b5f"/><path d="M183.3,68a3.13,3.13,0,0,0-3,1.82l-13.17,26.7q-.12.34-.24.06l-13.17-26.7a3.06,3.06,0,0,0-3-1.88,3.31,3.31,0,0,0-3.32,3.36v46.5a3.36,3.36,0,0,0,6.71,0V86.5s0-.09.14-.13a.3.3,0,0,1,.2.06L164,106.09a3.37,3.37,0,0,0,6,0l9.59-19.66a.33.33,0,0,1,.21-.06c.09,0,.13.09.13.13v31.37a3.34,3.34,0,0,0,5.72,2.36,3.24,3.24,0,0,0,1-2.36V71.37a3.19,3.19,0,0,0-1-2.4A3.31,3.31,0,0,0,183.3,68Z" transform="translate(-0.38 -0.36)" fill="#4b5b5f"/><path d="M208.19,81.37h-.28a12.34,12.34,0,0,0-9.1,3.79,3.15,3.15,0,0,0-1,2.41A3.4,3.4,0,0,0,201.2,91a3.11,3.11,0,0,0,2.33-1,5.91,5.91,0,0,1,4.38-1.89h.28a5.91,5.91,0,0,1,4.35,1.83,6,6,0,0,1,1.81,4.39v.28c0,.23-.11.3-.34.21a12.35,12.35,0,0,0-5.82-1.44h-.28a12.32,12.32,0,0,0-9.1,3.81,12.59,12.59,0,0,0-3.77,9.17v2a12.87,12.87,0,0,0,12.87,12.9h.28a12.87,12.87,0,0,0,12.87-12.92v-14a12.87,12.87,0,0,0-12.87-12.91Zm6.16,26.95a6.2,6.2,0,0,1-6.16,6.19h-.28a5.9,5.9,0,0,1-4.34-1.82,6,6,0,0,1-1.82-4.37v-2a6,6,0,0,1,1.82-4.43,5.87,5.87,0,0,1,4.34-1.83h.28a5.91,5.91,0,0,1,4.35,1.83,6,6,0,0,1,1.81,4.43Z" transform="translate(-0.38 -0.36)" fill="#4b5b5f"/><path d="M249.62,82.74l-1.16-.44a12.85,12.85,0,0,0-4.8-.93A14,14,0,0,0,235.44,84a13.57,13.57,0,0,0-6.09,11.75v22.12a3.31,3.31,0,0,0,3.32,3.37,3.33,3.33,0,0,0,2.41-1,3.24,3.24,0,0,0,1-2.41V95.71a7.63,7.63,0,0,1,7.51-7.63,6.36,6.36,0,0,1,2.62.56l1.16.41a3.27,3.27,0,0,0,1.1.19,3.3,3.3,0,0,0,2.43-1,3.2,3.2,0,0,0,1-2.36A3,3,0,0,0,249.62,82.74Z" transform="translate(-0.38 -0.36)" fill="#4b5b5f"/><path d="M273.31,81.09H273a12.37,12.37,0,0,0-9.11,3.8A12.54,12.54,0,0,0,260.16,94v13.9a12.52,12.52,0,0,0,3.77,9.14,12.37,12.37,0,0,0,9.11,3.8h.27a12.29,12.29,0,0,0,5.82-1.44c.23-.09.35,0,.35.21V131a3.37,3.37,0,0,0,5.75,2.36,3.28,3.28,0,0,0,1-2.36V94a12.54,12.54,0,0,0-3.77-9.15A12.37,12.37,0,0,0,273.31,81.09Zm6.17,26.83a6,6,0,0,1-1.82,4.43,5.94,5.94,0,0,1-4.35,1.82H273a5.94,5.94,0,0,1-4.35-1.82,6,6,0,0,1-1.81-4.43V94A6.2,6.2,0,0,1,273,87.8h.27A6.21,6.21,0,0,1,279.48,94Z" transform="translate(-0.38 -0.36)" fill="#4b5b5f"/><path d="M317.21,81.37a3.4,3.4,0,0,0-3.36,3.36v23.74a6.2,6.2,0,0,1-6.16,6.18h-.27a6.21,6.21,0,0,1-6.17-6.18V84.73a3.37,3.37,0,0,0-5.75-2.37,3.28,3.28,0,0,0-1,2.37v23.73a12.87,12.87,0,0,0,12.88,12.9h.27a12.87,12.87,0,0,0,12.88-12.9V84.73a3.28,3.28,0,0,0-1-2.37A3.21,3.21,0,0,0,317.21,81.37Z" transform="translate(-0.38 -0.36)" fill="#4b5b5f"/><path d="M342.07,81.23h-.28a12.35,12.35,0,0,0-9.1,3.8,12.52,12.52,0,0,0-3.77,9.14v14.31a12.87,12.87,0,0,0,12.87,12.88h.28a12.7,12.7,0,0,0,6.61-1.82,12.39,12.39,0,0,0,4.69-4.89,3.42,3.42,0,0,0,.41-1.65,3.28,3.28,0,0,0-1-2.36,3.21,3.21,0,0,0-2.4-1,3.13,3.13,0,0,0-2.94,1.78,5.8,5.8,0,0,1-5.41,3.22h-.28a6.21,6.21,0,0,1-6.16-6.17v-3.42c0-.23.14-.34.41-.34h15.55a3.18,3.18,0,0,0,2.39-1,3.4,3.4,0,0,0,1-2.44V94.17A12.51,12.51,0,0,0,351.18,85,12.37,12.37,0,0,0,342.07,81.23Zm6.16,16.43c0,.23-.14.35-.41.35H336c-.27,0-.41-.12-.41-.35V94.21a6.08,6.08,0,0,1,1.82-4.44,5.9,5.9,0,0,1,4.34-1.83h.28a5.91,5.91,0,0,1,4.35,1.83,6.07,6.07,0,0,1,1.81,4.44Z" transform="translate(-0.38 -0.36)" fill="#4b5b5f"/><path d="M380,100.83,372.07,96a4,4,0,0,1-2.13-3.63,4.36,4.36,0,0,1,1.2-3.11A4,4,0,0,1,374.19,88h.2a5.79,5.79,0,0,1,4.86,2.46A3.32,3.32,0,0,0,382,91.78a3.17,3.17,0,0,0,2-.69,3.09,3.09,0,0,0,1.37-2.67,3.5,3.5,0,0,0-.68-2,12.24,12.24,0,0,0-10.24-5.14h-.21a10.69,10.69,0,0,0-6.66,2.22,10.94,10.94,0,0,0-3.92,5.86,11.79,11.79,0,0,0-.41,3.08,10.28,10.28,0,0,0,5.41,9.38l7.87,4.8a4,4,0,0,1,2.13,3.63,4.31,4.31,0,0,1-1.21,3.11,4,4,0,0,1-3.06,1.27h-.2a5.89,5.89,0,0,1-4.89-2.4,3.42,3.42,0,0,0-4.74-.61,3.21,3.21,0,0,0-1.31,2.67,3.25,3.25,0,0,0,.69,2.05,12.32,12.32,0,0,0,10.23,5.07h.21a10.81,10.81,0,0,0,6.66-2.22,10.57,10.57,0,0,0,3.92-5.86,11.77,11.77,0,0,0,.41-3.07A10.33,10.33,0,0,0,380,100.83Z" transform="translate(-0.38 -0.36)" fill="#4b5b5f"/><path d="M174,148.28a.83.83,0,0,0-1.17.72l-5.18,19.69c0,.05,0,.08-.11.08s-.11,0-.11-.09L162.17,149a.87.87,0,0,0-.94-.72.85.85,0,0,0-.91.72l-5.2,19.68q0,.09-.12.09c-.07,0-.11,0-.11-.08L149.71,149c-.14-.67-.52-.91-1.13-.73s-.84.55-.66,1.21l6.16,23.58a.93.93,0,0,0,.94.77.94.94,0,0,0,.95-.77l5.16-19.68.09-.09a.16.16,0,0,1,.15.09l5.16,19.68a1,1,0,0,0,1.93,0l6.16-23.58A.86.86,0,0,0,174,148.28Z" transform="translate(-0.38 -0.36)" fill="#4b5b5f"/><path d="M188.37,148.14h-.18a7.8,7.8,0,0,0-7.78,7.78v10.23a7.8,7.8,0,0,0,7.78,7.78h.18a7.29,7.29,0,0,0,6.83-4.07,1,1,0,0,0-1.67-.91,5.51,5.51,0,0,1-5.16,3.08h-.18a5.87,5.87,0,0,1-5.88-5.88v-3.89c0-.15.07-.23.22-.23H195.2a.84.84,0,0,0,1-.95v-5.16a7.8,7.8,0,0,0-7.78-7.78Zm5.88,11.76c0,.15-.09.23-.27.23H182.53c-.15,0-.22-.08-.22-.23v-4a5.86,5.86,0,0,1,5.88-5.89h.18a5.86,5.86,0,0,1,5.88,5.89Z" transform="translate(-0.38 -0.36)" fill="#4b5b5f"/><path d="M209.91,148.28h-.18a7.59,7.59,0,0,0-5.71,2.48q-.18.19-.18-.09V139.59a1,1,0,0,0-1.9,0V166a7.82,7.82,0,0,0,7.79,7.8h.18a7.82,7.82,0,0,0,7.78-7.8v-10a7.82,7.82,0,0,0-7.78-7.79ZM215.79,166a5.72,5.72,0,0,1-1.72,4.18,5.66,5.66,0,0,1-4.16,1.73h-.18a5.89,5.89,0,0,1-5.89-5.91V156a5.87,5.87,0,0,1,5.89-5.86h.18a5.87,5.87,0,0,1,5.88,5.86Z" transform="translate(-0.38 -0.36)" fill="#4b5b5f"/><path d="M251.85,138.64a.84.84,0,0,0-.95,1v11.08q0,.29-.18.09a7.59,7.59,0,0,0-5.71-2.48h-.18a7.82,7.82,0,0,0-7.78,7.79v10a7.82,7.82,0,0,0,7.78,7.8H245a7.82,7.82,0,0,0,7.79-7.8V139.59A.84.84,0,0,0,251.85,138.64ZM250.9,166a5.89,5.89,0,0,1-5.89,5.91h-.18A5.89,5.89,0,0,1,239,166V156a5.87,5.87,0,0,1,5.88-5.86H245A5.87,5.87,0,0,1,250.9,156Z" transform="translate(-0.38 -0.36)" fill="#4b5b5f"/><path d="M266.55,148.14h-.18a7.8,7.8,0,0,0-7.78,7.78v10.23a7.8,7.8,0,0,0,7.78,7.78h.18a7.29,7.29,0,0,0,6.83-4.07,1,1,0,0,0-1.67-.91,5.51,5.51,0,0,1-5.16,3.08h-.18a5.87,5.87,0,0,1-5.88-5.88v-3.89c0-.15.07-.23.22-.23h12.67a.84.84,0,0,0,.95-.95v-5.16a7.8,7.8,0,0,0-7.78-7.78Zm5.88,11.76c0,.15-.09.23-.27.23H260.71c-.15,0-.22-.08-.22-.23v-4a5.86,5.86,0,0,1,5.88-5.89h.18a5.86,5.86,0,0,1,5.88,5.89Z" transform="translate(-0.38 -0.36)" fill="#4b5b5f"/><path d="M283.57,151.18a4.27,4.27,0,0,1,2.95-1.09h.14a5.57,5.57,0,0,1,4.68,2.35.9.9,0,0,0,1.36.18.86.86,0,0,0,.18-1.36,7.39,7.39,0,0,0-6.2-3.12h-.13a6.18,6.18,0,0,0-3.89,1.29,6.27,6.27,0,0,0-2.26,3.46,6,6,0,0,0-.28,1.81,6.06,6.06,0,0,0,3.13,5.48l5.7,3.39a4.21,4.21,0,0,1,2.21,3.84,4.28,4.28,0,0,1-.18,1.27,4.62,4.62,0,0,1-1.36,2.22,4.31,4.31,0,0,1-2.95,1.08h-.14a5.62,5.62,0,0,1-4.64-2.26,1,1,0,0,0-1.54,1.18,7.43,7.43,0,0,0,6.15,3h.14a6.28,6.28,0,0,0,6.15-4.69,6.73,6.73,0,0,0,.27-1.85,6,6,0,0,0-3.14-5.45l-5.7-3.4a4.22,4.22,0,0,1-2.2-3.86,4.36,4.36,0,0,1,.19-1.28A4.55,4.55,0,0,1,283.57,151.18Z" transform="translate(-0.38 -0.36)" fill="#4b5b5f"/><path d="M300.71,138.64a1.79,1.79,0,0,0-1.31.54,1.76,1.76,0,0,0-.55,1.31,1.86,1.86,0,0,0,3.17,1.32,1.81,1.81,0,0,0,.54-1.32,1.84,1.84,0,0,0-1.85-1.85Z" transform="translate(-0.38 -0.36)" fill="#4b5b5f"/><path d="M300.71,148.28a.84.84,0,0,0-.95.95v23.66a1,1,0,1,0,1.9,0V149.23A.84.84,0,0,0,300.71,148.28Z" transform="translate(-0.38 -0.36)" fill="#4b5b5f"/><path d="M316.32,148.28h-.18a7.82,7.82,0,0,0-7.79,7.79v10a7.54,7.54,0,0,0,2.29,5.51,7.46,7.46,0,0,0,5.5,2.29h.18a7.5,7.5,0,0,0,5.7-2.54c.12-.12.18-.09.18.1v4.27a5.89,5.89,0,0,1-5.88,5.91h-.18a5.48,5.48,0,0,1-5.16-3.12,1,1,0,1,0-1.72.9,7.32,7.32,0,0,0,6.88,4.12h.18a7.82,7.82,0,0,0,7.78-7.83V156.06a7.8,7.8,0,0,0-7.78-7.78ZM322.2,166a5.89,5.89,0,0,1-5.88,5.91h-.18a5.89,5.89,0,0,1-5.89-5.91V156a5.87,5.87,0,0,1,5.89-5.86h.18A5.87,5.87,0,0,1,322.2,156Z" transform="translate(-0.38 -0.36)" fill="#4b5b5f"/><path d="M337.85,148.28h-.18a7.82,7.82,0,0,0-7.78,7.79v16.82a1,1,0,1,0,1.9,0V156a5.87,5.87,0,0,1,5.88-5.86h.18a5.86,5.86,0,0,1,5.88,5.86v16.84a.85.85,0,0,0,1,1,.84.84,0,0,0,.94-1V156.07a7.8,7.8,0,0,0-7.78-7.79Z" transform="translate(-0.38 -0.36)" fill="#4b5b5f"/><path d="M359.39,148.14h-.18a7.8,7.8,0,0,0-7.78,7.78v10.23a7.8,7.8,0,0,0,7.78,7.78h.18a7.29,7.29,0,0,0,6.83-4.07,1,1,0,0,0-1.67-.91,5.51,5.51,0,0,1-5.16,3.08h-.18a5.87,5.87,0,0,1-5.88-5.88v-3.89c0-.15.07-.23.22-.23h12.67a.84.84,0,0,0,.95-.95v-5.16a7.8,7.8,0,0,0-7.78-7.78Zm5.88,11.76c0,.15-.09.23-.27.23H353.55c-.15,0-.22-.08-.22-.23v-4a5.86,5.86,0,0,1,5.88-5.89h.18a5.86,5.86,0,0,1,5.88,5.89Z" transform="translate(-0.38 -0.36)" fill="#4b5b5f"/><path d="M385.54,149.09l-.81-.27a8.9,8.9,0,0,0-3-.54,8.9,8.9,0,0,0-8.73,8.79v15.82a.85.85,0,0,0,1,1,.84.84,0,0,0,.93-1V157a6.58,6.58,0,0,1,2.92-5.63,7,7,0,0,1,4-1.22,6.7,6.7,0,0,1,2.33.42l.81.27a.86.86,0,0,0,1.26-.53A.88.88,0,0,0,385.54,149.09Z" transform="translate(-0.38 -0.36)" fill="#4b5b5f"/><path d="M107.94.36H7.64A7.29,7.29,0,0,0,.38,7.63V82.52c0,4,2.58,5.26,5.73,2.8L109.47,4.82C112.62,2.37,111.93.36,107.94.36Z" transform="translate(-0.38 -0.36)" fill="#f05625"/><path d="M114,13.19l-5.73,4.46h0l-87,67.68a5.4,5.4,0,0,0,0,8.93l87,67.86h0l5.73,4.46h0V13.19Z" transform="translate(-0.38 -0.36)" fill="#ffce0a"/></svg>