<?xml version="1.0" encoding="utf-8"?>
<!-- Generator: Adobe Illustrator 23.0.0, SVG Export Plug-In . SVG Version: 6.00 Build 0)  -->
<svg version="1.1" id="Layer_1" xmlns="http://www.w3.org/2000/svg" xmlns:xlink="http://www.w3.org/1999/xlink" x="0px" y="0px"
	 width="105.8px" height="88.1px" viewBox="0 0 105.8 88.1" enable-background="new 0 0 105.8 88.1" xml:space="preserve">
<g display="none">
	<g id="GLOBE_3_1_" display="inline">
		<g>
			<g id="GLOBE_3_10_">
				<g id="globe_10_">
					<g>
						<path fill="#8B8C8C" d="M54.7,7.7c-20.4,0-37,16.6-37,37c0,3.4,0.5,6.6,1.3,9.7c1.5,0.2,3.1,0.2,4.8,0.2c1.8,0,4-0.1,6.6-0.3
							l0,0c-0.7-0.3-1-0.8-1.5-1.4l-0.1-0.1c-1.1-1.5-2.5-2.7-3.9-3.9c-0.5-0.4-0.9-0.8-1.4-1.2l-0.1-0.1c-0.3-0.3-0.7-0.7-1.2-1
							c0-0.6-0.1-1.3-0.1-2c0-4.9,1.1-9.6,3.1-13.9c2.2-1.4,4.8-1.5,7.1-2.7c1-0.5,1.8-1.3,2.6-2.1c0.7-0.7,1.5-1.4,2.2-2.1
							c1.3-1.5,1.6-3.2,0.9-5c-0.2-0.6-0.5-1.2-0.8-1.7c5.2-3.3,11.2-5.1,17.5-5.1c5.9,0,11.5,1.6,16.5,4.5c-0.1,0-0.1,0.1-0.2,0.1
							c0,0,0,0-0.1,0c-1,0-3.9,1.1-4.5,1.5c-0.8,0.5-1.6,1-2.2,1c0.5-0.3,1-0.6,0.9-1.2s-0.7-1-1.6-1.4c-0.5-0.2-1-0.3-1.7-0.3
							c-0.6,0-1.3,0.1-1.9,0.1c-0.3,0-0.5,0.1-0.7,0.1c-2.6,0.1-4.5,1.3-6.5,3.9c-0.1,0.2-0.5,0.7-0.3,1.2c0.1,0.4,0.5,0.6,0.9,0.7
							c-0.1,0-0.1,0.1-0.2,0.1c-0.2,0.1-0.2,0.4-0.2,0.6C53,24,53,24,52.6,24.1l0,0c0,0,0,0-0.1,0c0,0,0,0-0.1,0l0,0c0,0,0,0,0,0.1
							l0,0l0,0c0,0,0,0,0,0.1c-0.3,0.6-0.8,0.7-1.7,0.8c-0.2,0-0.5,0.1-0.8,0.1c0.1-0.1,0.2-0.2,0.3-0.4c0.2-0.5-0.2-1.2-0.6-1.4
							l0,0c-0.5-0.2-0.4-0.3-0.4-0.4v-0.1c0-0.1,0.1-0.3,0.1-0.5c-0.1-0.6-0.3-1.3-0.8-1.4c-0.1,0-0.4-0.1-0.5-0.1
							c-0.4,0-0.7,0.7-0.9,0.9c0,0.1-0.1,0.1-0.1,0.2c-0.4,0.5-0.4,0.9-0.3,1.2c-0.5-0.1-0.7-0.2-1-0.2c-0.2,0-0.4,0.1-0.6,0.2
							c-0.5,0.3-0.9,0.9-0.8,1.6c0.1,0.6,0.6,1.1,1.3,1.1c0.3,0,0.6-0.1,0.8-0.3c0.1-0.1,0.3-0.3,0.4-0.5c0,0.1,0.1,0.1,0.1,0.2
							c0.3,0.4,1.1,0.6,1.7,0.6l0,0c0.1,0,0.2,0,0.3,0c-0.3,0.1-0.5,0.3-0.7,0.6c-0.6,0.7-0.1,1.4,0.1,1.7v0.1c0,0,0,0,0,0.1
							c-0.1,0-0.3,0-0.4-0.1c-0.2,0-0.5-0.1-0.6-0.1c-0.6,0-0.9,0-1.2,0c-0.1,0-0.1,0-0.1,0.1c-1.5,0.8-2.3,1.9-2,2.9
							c0.1,0.5,0.7,1.7,3.2,1.8c-0.1,0-0.2,0-0.3,0.1c-1.2,0.3-2.4,0.6-3.2,1.4c-0.4,0.4-0.7,1-0.9,1.6c-0.1,0.3-0.3,0.6-0.4,0.9
							c-0.1,0.2-0.3,0.3-0.5,0.5c-0.4,0.3-0.8,0.7-1.1,1.2c0,0,0,0,0,0.1c-0.4,0.9-0.5,2.2-0.5,3.3c0,0.3,0,0.6-0.1,0.9
							c-0.1,2.1,0,4.3,1.5,6.1c0.8-2,2.8-3.4,5.1-3.4c0.4,0,0.9,0.1,1.3,0.2l11.8,2.8c0.1,0,0.1,0,0.2,0.1c0.1,0,0.2,0,0.3,0.1
							c0.1,0,0.1,0,0.2,0.1l0,0c0.1,0,0.2,0.1,0.3,0.1s0.2,0.1,0.2,0.1l0,0c0.1,0,0.2,0.1,0.2,0.1c0.1,0.1,0.2,0.1,0.3,0.2
							c0.1,0,0.1,0.1,0.2,0.1l0,0c0.1,0.1,0.2,0.1,0.2,0.2c0,0,0.1,0.1,0.2,0.1l0,0c0,0,0,0,0.1,0.1s0.1,0.1,0.2,0.2l0,0l0.1,0.1
							l0,0c0.1,0.1,0.1,0.1,0.2,0.2l0,0l0,0c0.1,0.1,0.1,0.1,0.2,0.2l0,0c0,0.1,0.1,0.1,0.1,0.2c0,0.1,0.1,0.2,0.2,0.3l0,0l0.1,0.1
							c0.1,0.1,0.1,0.2,0.2,0.3l0,0c0,0,0,0.1,0.1,0.2c0,0.1,0.1,0.2,0.1,0.3s0.1,0.1,0.1,0.2c0,0.1,0.1,0.2,0.1,0.3
							s0.1,0.2,0.1,0.3l0,0c0,0.1,0,0.1,0,0.2c0,0.1,0,0.2,0,0.3s0,0.1,0,0.2c0,0.1,0,0.2,0,0.3l0,0l0,0c0,0.1,0,0.1,0,0.2l0,0
							c0,0.1,0,0.2,0,0.2l0,0l0,0c0,0.1,0,0.2,0,0.3s0,0.1,0,0.2c0,0.1,0,0.2-0.1,0.3v0.1c0,0.1,0,0.1-0.1,0.2l0,0
							c0,0.1,0,0.2-0.1,0.2c0,0.1-0.1,0.2-0.1,0.3s-0.1,0.1-0.1,0.2l0,0c0,0.1-0.1,0.2-0.2,0.3l-0.1,0.1c-0.1,0.1-0.1,0.2-0.2,0.3
							c0,0,0,0,0,0.1l0,0l0,0l0,0C63,57,63,57.1,62.9,57.2l-0.1,0.1l-6.2,7.3c0.1,0.2,0.2,0.4,0.4,0.7c0.2,0.3,0.4,0.6,0.5,1
							c0.2,0.4,0.3,0.8,0.4,1.1c0.3,1,0.6,1.4,1.8,1.4c0.1,0,0.3,0,0.4,0c3.8-0.4,6.3-3.2,7.3-5.7c0.3-0.6,0.6-0.9,1.1-1.2
							c0.2-0.2,0.4-0.3,0.7-0.5c0,0.1,0,0.1-0.1,0.2c0,0.1-0.1,0.2-0.1,0.3c-0.3,0.7-0.6,1.6-0.3,2.3c0.1,0.3,0.4,0.5,0.7,0.6
							c0.1,0,0.2,0.1,0.3,0.1c0.7,0,1.3-0.6,1.9-1.3c0.2-0.3,0.4-0.6,0.5-0.9c0-0.1,0.1-0.2,0.1-0.3c0.2-0.4,0.5-0.8,0.8-1.1
							c0.2-0.2,0.3-0.4,0.5-0.6c0.1-0.1,0.6-0.9,0.5-1.6c-0.1-0.2-0.2-0.4-0.4-0.5c-0.4-0.2-1.1-0.1-1.5,0.2
							c-0.2,0.1-0.4,0.3-0.5,0.5l0,0c-0.2,0-0.5,0-0.8,0.1s-0.6,0.3-0.8,0.5c0.1-0.7,0.1-1.3,0.1-2s-0.1-1.4,0.1-2
							c0.5-1.3,1.5-2.3,2.6-3.3c1.3-1.2,2.7-2.5,3.2-4.4c0.3-0.9,0.2-1.5-0.1-1.9c-0.4-0.6-1.2-0.6-1.9-0.6c-0.2,0-0.3,0-0.5,0
							s-0.3,0-0.5,0c-0.9,0-1.6-0.1-2-0.7c-0.8-1.1-2.3-5.4-2.3-7.1c1,0.5,1.6,2,2.1,3.5c0.6,1.6,1.2,3.1,2.4,3.5
							c0.7,0.2,1.5,0.1,2.4-0.5c1.2-0.7,3-2.6,3.1-4.3c0-0.5,0-0.9-0.2-1.3c0.6,0.2,1.1,0.2,1.7,0.3c0.8,0.1,1.6,0.2,2,0.6
							c0.7,0.7,0.9,2.3,1.2,3.8c0.4,2.2,0.7,4.3,2.3,4.8c0.3,0.1,0.6,0,0.8-0.3c0.6-1.1,0.4-2.4,0.2-3.6c-0.1-0.9-0.3-1.8-0.1-2.5
							c0.3-1,0.5-1.3,0.6-1.4l0,0c0.2,1.5,0.3,3,0.3,4.5c0,2.5-0.3,4.9-0.8,7.3c-1.2,0.7-2.2,1.6-3.1,2.5c-0.1,0.1-0.3,0.2-0.4,0.4
							c-0.6,0.5-1.2,1.1-1.4,1.7c-0.1,0.4,0,0.6,0.1,0.7c0.2,0.2,0.4,0.3,0.7,0.3c0,0,0,0,0.1,0c-0.4,0.4-0.6,1-0.7,1.5v0.1
							c-0.3,0.9-0.6,1.7-1,2.4c-0.2,0.4-0.8,0.6-1.3,0.8c-0.4,0.1-0.7,0.2-1,0.4c-0.6,0.4-0.9,1.1-1.2,1.7v0.1
							c-0.2,0.5-0.4,0.9-0.6,1.4c-0.1,0.4-0.3,0.8-0.5,1.2l0,0c-0.2,0.6-0.6,1.5-0.2,2.2l0,0c-5.9,5.1-13.4,7.9-21.3,7.9
							c-7.6,0-14.9-2.6-20.7-7.4c0-0.1,0-0.2,0-0.4c0-0.4,0-0.8,0-1.2c-0.1-0.6-0.4-1-0.7-1.4s-0.6-0.7-0.6-1.2s0.2-0.6,0.6-0.8
							c-2,0.2-3.9,0.4-5.8,0.5c-1.2,0.1-2.3,0.1-3.4,0.1c6.7,9.7,17.9,16.1,30.5,16.1c20.4,0,37-16.6,37-37
							C91.7,24.3,75.2,7.7,54.7,7.7z M59,19.5c0.1,0,0.2,0.1,0.5,0.3c0,0.1,0,0.2,0,0.3c0,0.4,0,0.8,0.3,1.1c0,0,0,0,0.1,0.1
							s0.2,0.1,0.3,0.2c-0.2,0.1-0.4,0.1-0.6,0.3c-0.4,0.2-1.5,0.7-2,0.8C57.2,21.7,58.9,19.7,59,19.5z M65.7,34.2
							c-0.4,0.5-1,0.8-1.7,0.7l0,0c-0.2-0.2-0.7-0.5-1.2-0.7c-0.1,0-0.3,0-0.5,0c-0.3,0-0.5,0-0.7,0.1c-0.1,0-0.3,0.1-0.4,0.1
							c0,0,0,0-0.1,0c-0.3,0-0.6,0.1-0.9,0.1c-0.5,0.1-1,0.1-1.6,0.1c-0.2,0-0.4,0-0.6,0c-1-0.2-1.5-0.8-2.1-1.4
							c-0.7-0.8-1.6-1.8-3.4-1.8c0,0,0,0-0.1,0c-0.9,0.1-1.9,0.3-2.8,0.7c0.1-0.1,0.2-0.2,0.3-0.4l0,0l0.1-0.1
							c0.1-0.3,0.2-0.8,0.2-1.3v-0.1c0,0,0.1,0,0.3,0s0.4,0,0.6,0c0.2,0,0.4,0,0.6,0c0.2,0,0.3,0,0.4-0.1c0.5-0.2,0.9-0.3,1.4-0.3
							c0.6,0,1.3,0.2,1.9,0.6c0.4,0.3,0.9,0.5,1.3,0.7c0.1,0.1,0.3,0.1,0.4,0.2c0.1,0.1,0.2,0.1,0.3,0.3c0.1,0.2,0.3,0.5,0.7,0.6
							c0.1,0,0.1,0,0.2,0c0.1,0,0.5,0,0.7-0.4c0.1-0.3,0.1-0.3,0.3-0.4c0.1,0,0.1-0.1,0.2-0.1c0.1,0,0.1-0.1,0.1-0.1l0,0l0.1,0.1
							c0.5,0.7,1.1,1.5,2,1.5c0.1,0,0.2,0,0.3,0s0.5-0.1,0.6-0.4c0.1-0.3,0.1-0.5,0.1-0.8l0.1,0.1c0.5,0.5,0.9,0.9,1.3,1
							c0.3,0.1,0.7,0.2,1,0.3c0.2,0,0.7,0.1,0.8,0.2C66.1,33.5,66,33.7,65.7,34.2z M75.7,21c-0.2-0.2-0.4-0.5-0.7-0.6
							c-0.9-0.6-2.3-0.7-3.5-0.7c-0.2,0-0.4,0-0.6,0c-0.1,0-0.3,0-0.4,0h-0.4c-1.2,0-1.6-0.1-1.8-0.2c0-0.1,0.1-0.2,0.2-0.3
							c0.2-0.3,0.4-0.3,1-0.3c0.4,0,1-0.1,1.5-0.4c0.5,0.2,1.1,0.4,1.6,0.6c0.2,0.1,0.4,0.1,0.6,0.2c0.4,0.1,0.6,0.3,0.9,0.5
							l0.1,0.1c0.3,0.2,0.5,0.2,0.8,0.1c0.2,0,0.3-0.1,0.4-0.2c-0.3-0.3,0.4,0.3,1,0.9C76.2,20.7,76,20.8,75.7,21z"/>
					</g>
				</g>
				<g id="arrow_8_">
					<path fill="#262626" d="M61,53.5L61,53.5c0-0.1,0-0.2,0-0.2v-0.1v-0.1V53v-0.1c0-0.1,0-0.1-0.1-0.2c0,0,0,0,0-0.1
						s-0.1-0.1-0.1-0.2c0,0,0,0,0-0.1l-0.1-0.1c0,0,0,0-0.1-0.1L60.5,52l-0.1-0.1c0,0,0,0-0.1-0.1l-0.1-0.1l0,0l0,0l-0.1-0.1
						c0,0-0.1,0-0.1-0.1l-0.1-0.1c0,0-0.1,0-0.1-0.1c0,0-0.1,0-0.1-0.1c0,0-0.1,0-0.1-0.1h-0.1c-0.1,0-0.1,0-0.2,0c0,0,0,0-0.1,0
						l-11.8-2.8c-1.3-0.3-2.7,0.5-3,1.8s0.5,2.7,1.8,3l2.8,0.7c-22.7,5.9-38.1,4-39.6-0.7c-0.7-2.1,1.2-5.4,5.5-9.2
						c0-2.3,0.3-4.7,0.7-6.9c-9,6.6-12.7,12.7-11.1,17.8c1.7,5.2,8.4,7.9,19.3,7.8c1.2,0,2.4,0,3.6-0.1c7.1-0.4,15.2-1.8,23.7-4
						l-2.4,2.8c-0.9,1-0.8,2.6,0.3,3.5c0.5,0.4,1.1,0.6,1.7,0.6c0.7,0,1.3-0.3,1.8-0.9l7.9-9.2l0,0l0.1-0.1c0,0,0,0,0-0.1l0.1-0.1
						c0,0,0,0,0-0.1c0,0,0.1-0.1,0.1-0.2v-0.1c0-0.1,0-0.1,0.1-0.2v-0.1v-0.1l0,0c0-0.1,0-0.1,0-0.2v-0.1v-0.1v-0.1v-0.1
						C61,53.6,61,53.6,61,53.5z"/>
					<path fill="#262626" d="M101.7,23.2c-1.7-5.2-8.4-7.9-19.3-7.8c-0.2,0-0.3,0-0.5,0c0.2,0.2,0.4,0.3,0.5,0.5
						c0.2,0.2,0.4,0.4,0.6,0.6c0.3,0.3,0.6,0.6,0.9,0.9c0.1,0.1,0.1,0.1,0.2,0.2c0.9,1,1.7,2,2.5,3c6.8,0.5,9.8,2.4,10.4,4.3
						c0.6,1.9-0.9,4.7-4.1,7.9c0.6,1.8,1,3.7,1.3,5.5C99.9,33.3,103.3,28.1,101.7,23.2z"/>
				</g>
			</g>
		</g>
	</g>
</g>
<g id="Layer_3" display="none">
	<g display="inline">
		<path fill="#8B8C8C" d="M27.8,27.5L22,49.6c-0.3,1.1-1,1.7-2.2,1.7s-1.9-0.6-2.2-1.7l-3.5-13.5C14.1,36,14,36,14,36
			s-0.1,0-0.1,0.1l-3.5,13.5c-0.3,1.1-1,1.7-2.2,1.7S6.3,50.7,6,49.6L0.1,27.5C0,27.3,0,27.1,0,26.9c0-0.6,0.2-1.1,0.7-1.6
			c0.4-0.4,1-0.7,1.6-0.7c1.2,0,1.9,0.6,2.2,1.7L8,39.8c0,0.1,0.1,0.1,0.1,0.1c0.1,0,0.1,0,0.1-0.1l3.5-13.5c0.3-1.1,1-1.7,2.2-1.7
			s1.9,0.6,2.2,1.7l3.5,13.5c0,0.1,0.1,0.1,0.2,0.1c0,0,0.1,0,0.1-0.1l3.5-13.5c0.3-1.1,1-1.7,2.2-1.7c0.6,0,1.1,0.2,1.6,0.7
			c0.4,0.4,0.7,1,0.7,1.6C27.9,27.1,27.9,27.3,27.8,27.5z"/>
		<path fill="#8B8C8C" d="M61.3,27.5l-5.8,22.2c-0.3,1.1-1,1.7-2.2,1.7s-1.9-0.6-2.2-1.7l-3.5-13.5c0-0.1-0.1-0.1-0.1-0.1
			s-0.1,0-0.1,0.1l-3.5,13.5c-0.3,1.1-1,1.7-2.2,1.7s-1.9-0.6-2.2-1.7l-5.8-22.2c-0.1-0.2-0.1-0.4-0.1-0.6c0-0.6,0.2-1.1,0.7-1.6
			c0.4-0.4,1-0.7,1.6-0.7c1.2,0,1.9,0.6,2.2,1.7l3.5,13.5c0,0.1,0.1,0.1,0.1,0.1c0.1,0,0.1,0,0.1-0.1l3.5-13.5
			c0.3-1.1,1-1.7,2.2-1.7s1.9,0.6,2.2,1.7l3.5,13.5c0,0.1,0.1,0.1,0.2,0.1c0,0,0.1,0,0.1-0.1L57,26.3c0.3-1.1,1-1.7,2.2-1.7
			c0.6,0,1.1,0.2,1.6,0.7c0.4,0.4,0.7,1,0.7,1.6C61.4,27.1,61.3,27.3,61.3,27.5z"/>
		<path fill="#8B8C8C" d="M94.7,27.5l-5.8,22.2c-0.3,1.1-1,1.7-2.2,1.7s-1.9-0.6-2.2-1.7L81,36.1c0-0.1-0.1-0.1-0.1-0.1
			s-0.1,0-0.1,0.1l-3.5,13.5c-0.3,1.1-1,1.7-2.2,1.7s-1.9-0.6-2.2-1.7L67,27.5c-0.1-0.2-0.1-0.4-0.1-0.6c0-0.6,0.2-1.1,0.7-1.6
			c0.4-0.4,1-0.7,1.6-0.7c1.2,0,1.9,0.6,2.2,1.7l3.5,13.5c0,0.1,0.1,0.1,0.1,0.1c0.1,0,0.1,0,0.1-0.1l3.5-13.5
			c0.3-1.1,1-1.7,2.2-1.7s1.9,0.6,2.2,1.7l3.5,13.5c0,0.1,0.1,0.1,0.2,0.1c0,0,0.1,0,0.1-0.1l3.5-13.5c0.3-1.1,1-1.7,2.2-1.7
			c0.6,0,1.1,0.2,1.6,0.7c0.4,0.4,0.7,1,0.7,1.6C94.8,27.1,94.8,27.3,94.7,27.5z"/>
		<path fill="#262626" d="M105.8,48.5c0,0.8-0.3,1.4-0.8,1.9s-1.2,0.8-1.9,0.8c-0.7,0-1.4-0.3-1.9-0.8s-0.8-1.2-0.8-1.9
			s0.3-1.4,0.8-1.9s1.2-0.8,1.9-0.8c0.7,0,1.4,0.3,1.9,0.8S105.8,47.8,105.8,48.5z"/>
	</g>
</g>
<g id="Layer_4" display="none">
	<g display="inline">
		<path fill="#363635" d="M54,49.5L54,49.5L54,49.5z"/>
		<path fill="#363635" d="M53.6,63.6c-0.2-0.4-0.5-0.7-0.8-0.9s-0.6-0.3-1-0.3c-0.9,0-2,0.5-2.7,1.6l-0.5,0.9c0,0-1.1,2.2-1.4,2.6
			c-0.3,0.5-0.5,1.1-0.5,1.6s0.1,0.9,0.3,1.3s0.5,0.7,0.8,0.9l0,0c0.3,0.2,0.6,0.3,1,0.3c0.9,0,2-0.5,2.7-1.6l1.8-3.4v-0.1
			c0.3-0.5,0.5-1.1,0.5-1.6C53.9,64.4,53.8,63.9,53.6,63.6z"/>
		<path fill="#363635" d="M49.5,60.2L49.5,60.2c0.3-0.5,0.4-1.1,0.4-1.6c0-0.7-0.1-1.3-0.4-1.8c-0.3-0.5-0.6-0.9-1.1-1.1
			c-0.3-0.1-0.6-0.2-1-0.2c-1-0.1-2,0.5-2.8,1.5c-0.1,0.4-3.6,7.8-3.7,8.1c-0.3,1-0.3,1.6,0.1,2.4c0.2,0.5,0.6,0.9,1.1,1.1
			c0.3,0.1,0.6,0.2,1,0.2c1,0.1,2.1-0.5,2.8-1.5l1.3-2.4L49.5,60.2z"/>
		<path fill="#363635" d="M36,54.1c0-0.8-0.2-1.5-0.5-2.1c-0.4-0.6-0.9-0.9-1.5-1.1l0,0c-0.2,0-0.3-0.1-0.5-0.1
			c-0.6,0-1.3,0.2-1.9,0.7s-1,1.2-1.3,2l0,0l-0.5,2.2c-0.1,0.3-0.1,0.5-0.1,0.8c0,0.8,0.2,1.5,0.5,2.1c0.4,0.6,0.9,0.9,1.5,1.1
			c0.2,0,0.3,0.1,0.5,0.1c0.6,0,1.7-0.3,2.3-1.1l1.3-3.8C35.9,54.6,36,54.3,36,54.1z"/>
		<path fill="#363635" d="M43.2,56c0-0.7-0.1-1.3-0.4-1.8c-0.3-0.5-0.7-0.9-1.2-1.1l0,0C41.4,53,41.1,53,40.8,53
			c-1.2-0.1-2.5,0.7-3.2,2.2l0,0l-2.3,4.9c-0.2,0.5-0.3,1-0.4,1.5c0,0.7,0.1,1.3,0.4,1.8c0.3,0.5,0.7,0.9,1.2,1.1l0,0
			c0.3,0.1,0.6,0.2,0.9,0.2c0.7,0,1.8-0.3,2.6-1.4c0.1-0.2,2.4-5.2,2.6-5.4C43.1,56.6,43.2,56.1,43.2,56z"/>
		<path fill="#8B8C8C" d="M15.2,45.2c1.2-17,10.5-23.4,10.5-23.4l-9.3-5.5C3.6,26.2,4,44.8,4,44.8l10.9,5.8c1.8,1.2,4.8-2.1,4.8-2.1
			l-1.5-0.6C15.4,51,15.3,47.4,15.2,45.2z"/>
		<path fill="#8B8C8C" d="M89.4,15.5l-9.1,5.9c0,0,9.2,5.5,10.4,22.5c-0.1,2.2-0.2,5.8-3,2.6L86.3,47c0,0,3,3.3,4.8,2.1l11.2-5.9
			C102.2,43.3,103.2,25.4,89.4,15.5z"/>
		<path fill="#363635" d="M82.8,48.7l-0.2-0.2l-1.3-1c0.8-0.3,1.4-0.5,1.5-0.5c2.7-1.3,5-2.4,5-2.4c0.1-12.2-7.9-19.3-7.9-19.3
			s-3,2.1-5.9,2.3c-2.4,0.1-17.3-5.9-17.4-5.9c0,0-2.6,0.3-3,0.3s-10.8,1.5-12.8,1.8c-0.6,0.1-1,0.2-1.2,0.2s-0.8,0.4-1.4,0.9
			c-0.6,0.6-1.3,1.3-2,2.2c-1.5,1.7-3.1,3.7-4.9,5.2c-0.1,0.1-0.3,0.3-0.2,0.7c0.5,1.9,5.2,5.6,10.6,1c1.6-1.4,2.6-2.5,2.8-2.7l0,0
			c0.2-0.2,0.4-0.3,0.7-0.3l8.1,0.9l8.6,5.6L72,44.3l8.9,6.5c0.4,0.4,0.7,0.8,0.9,1.1c0.2,0.4,0.3,0.7,0.3,1.1c0,0.2,0,0.3-0.1,0.6
			c-0.1,0.4-0.2,0.6-0.3,0.8c-0.2,0.3-0.5,0.5-0.8,0.6s-0.7,0.2-1,0.2s-0.5-0.1-0.8-0.2l-2.9-1.6l0,0l-1.5-0.9
			c-0.1-0.1-0.2-0.1-0.3-0.1l-9.6-5.3c-0.7-0.4-1.5-0.1-1.8,0.6c-0.4,0.7-0.1,1.6,0.6,1.9L75.3,56c0.2,0.2,0.5,0.4,0.7,0.8
			c0.3,0.5,0.5,1,0.5,1.5c0,0.4-0.1,0.9-0.5,1.5c-0.2,0.3-0.5,0.5-0.9,0.6c-0.3,0.1-0.7,0.2-0.9,0.2c-0.3,0-0.6-0.1-1-0.2
			c-0.2-0.1-0.8-0.4-1.7-0.9c-1.6-0.8-3.9-2.1-5.9-3.2c-1-0.6-1.9-1.1-2.6-1.4c-0.4-0.2-0.7-0.4-0.9-0.5s-0.4-0.2-0.4-0.2
			c-0.7-0.4-1.5-0.1-1.9,0.6c-0.4,0.7-0.1,1.6,0.5,1.9c0.1,0.1,0.4,0.2,0.7,0.4c1.3,0.7,3.9,2.1,6.3,3.4c0,0,0.1,0,0.1,0.1
			c0.1,0.1,0.3,0.2,0.5,0.4c0.3,0.3,0.7,0.7,1,1.1c0.3,0.4,0.4,0.9,0.4,1.4c0,0.4-0.1,0.9-0.5,1.5c-0.3,0.4-0.6,0.6-1,0.7
			s-0.8,0.1-1,0.1l0,0c-0.3,0-0.7-0.1-1.1-0.2L62.6,64c-0.2-0.1-0.4-0.3-0.6-0.4c-0.1,0-0.2-0.1-0.3-0.1l-3.5-1.8
			c-0.7-0.3-1.5-0.1-1.8,0.7c-0.3,0.7-0.1,1.6,0.6,1.9l4.2,2.2l0,0c0.2,0.2,0.5,0.6,0.7,0.9c0.2,0.4,0.3,0.8,0.3,1.1
			c0,0.4-0.1,0.7-0.4,1.2c-0.1,0.2-0.4,0.4-0.7,0.5c-0.2,0.1-0.3,0.1-0.5,0.1c-0.1,0-0.3,0-0.3,0c-0.2,0-0.5-0.1-0.8-0.2l0,0
			l-5.1-2.3c-0.1,0-0.7,1.4-1.1,2.5l0,0l5,2.4l0,0l0,0l0,0l0,0c0.6,0.3,1.3,0.4,1.9,0.4c0.2,0,0.5,0,0.8-0.1
			c0.4-0.1,0.9-0.2,1.4-0.5s1.1-0.7,1.5-1.3c0.6-0.9,0.9-1.9,0.9-2.8c0-0.1,0-0.2,0-0.2c0.6,0.2,1.2,0.3,1.9,0.4l0,0l0,0l0,0
			c0.3,0,1,0,1.8-0.3c0.8-0.2,1.8-0.8,2.4-1.8c0.7-1,1-2.1,1-3.1c0-0.1,0-0.3,0-0.4c0.7,0.3,1.4,0.5,2.1,0.5c0.4,0,1-0.1,1.8-0.3
			c0.7-0.3,1.5-0.8,2.2-1.7c0.7-1,1.1-2.1,1.1-3.2c0-0.1,0-0.3,0-0.4c0.3,0,0.5,0.1,0.8,0.1l0,0c0.8,0,1.8-0.2,2.7-0.8
			c0.5-0.3,0.9-0.7,1.3-1.2s0.7-1.2,0.8-1.9c0.1-0.4,0.1-0.8,0.1-1.2c0-0.9-0.3-1.8-0.7-2.5C83.8,49.7,83.3,49.2,82.8,48.7z"/>
		<path fill="#363635" d="M26.8,48.1c-0.5-0.4-0.9-0.8-1.2-1.1c-0.2-0.1-0.3-0.3-0.5-0.4c-0.1-0.1-0.2-0.2-0.5-0.3
			c-1.7-0.8-3.3-1.6-4.2-2c0.2-5.4,1.9-9.6,3.7-12.6c0.9-1.6,1.9-2.8,2.6-3.6c0.2-0.3,0.4-0.5,0.6-0.6c0.4,0.1,0.8,0.2,1.4,0.4
			c0.9,0.2,1.9,0.5,3,0.7c0.8-0.8,1.6-1.9,2-2.5C33.6,26,33.5,26,33.3,26c-1.3-0.1-2.8-0.5-4-0.8c-0.6-0.2-1.1-0.3-1.4-0.4
			c-0.2-0.1-0.3-0.1-0.4-0.1h-0.1l0,0c-0.5-0.2-0.9,0-1.3,0.3c-0.1,0.1-2.1,1.9-4.2,5.4c-2.1,3.4-4.1,8.5-4.1,14.9v0.2
			c0,0.5,0.3,1.1,0.8,1.3c0,0,0.6,0.3,1.5,0.7s2.1,1,3.5,1.7c0,0,0.1,0.1,0.2,0.1c0.4,0.3,1.1,0.9,1.9,1.6c0.9,0.7,3.4,3.1,3.5,3.1
			c0.3-0.9,0.5-2,0.9-2.8C28.7,49.9,27.8,48.9,26.8,48.1z"/>
	</g>
</g>
<g id="Layer_5" display="none">
	<g display="inline">
		<path fill="#262626" d="M30.7,61.5c0,0.9-0.3,1.6-0.9,2.2s-1.3,0.9-2.1,0.9c-1.1,0-2-0.5-2.5-1.4L15.8,49
			c-0.3-0.5-0.5-1.1-0.5-1.7c0-0.6,0.2-1.2,0.5-1.7l9.4-14.2c0.6-0.9,1.4-1.4,2.5-1.4c0.8,0,1.5,0.3,2.1,0.9s0.9,1.3,0.9,2.2
			c0,0.6-0.2,1.2-0.5,1.7l-8,12.2c-0.1,0.2-0.1,0.4,0,0.5l8,12.2C30.6,60.3,30.7,60.9,30.7,61.5z"/>
		<path fill="#262626" d="M90.4,49L81,63.1c-0.6,0.9-1.4,1.4-2.5,1.4c-0.8,0-1.5-0.3-2.1-0.9s-0.9-1.3-0.9-2.2
			c0-0.6,0.2-1.2,0.6-1.7l8-12.2c0.1-0.2,0.2-0.4,0-0.6L76,34.8c-0.3-0.5-0.5-1.1-0.5-1.7c0-0.8,0.3-1.5,0.9-2.1s1.3-0.9,2.1-0.9
			c1.1,0,2,0.5,2.5,1.4l9.4,14.2c0.3,0.5,0.5,1.1,0.5,1.7C90.9,47.9,90.8,48.5,90.4,49z"/>
	</g>
	<g display="inline">
		<path fill="#8B8C8C" d="M42.8,77c-0.4,0-0.9-0.1-1.3-0.2c-2.1-0.7-3.2-3-2.5-5.1l18.1-51.5c0.7-2.1,3-3.2,5.1-2.5s3.2,3,2.5,5.1
			L46.6,74.3C46,76,44.5,77,42.8,77z"/>
	</g>
</g>
<g id="GLOBE_3_2_">
	<g>
		<g id="GLOBE_3_12_">
			<g id="globe_11_">
				<g>
					<path fill="#FFFFFF" d="M54.3,6.9c-20.4,0-37,16.6-37,37c0,3.4,0.5,6.6,1.3,9.7c1.5,0.2,3.1,0.2,4.8,0.2c1.8,0,4-0.1,6.6-0.3
						l0,0c-0.7-0.3-1-0.8-1.5-1.4l0-0.1c-1.1-1.5-2.5-2.7-3.9-3.9c-0.5-0.4-0.9-0.8-1.4-1.2L23,46.8c-0.3-0.3-0.7-0.7-1.2-1
						c0-0.6-0.1-1.3-0.1-2c0-4.9,1.1-9.6,3.1-13.9c2.2-1.4,4.8-1.5,7.1-2.7c1-0.5,1.8-1.3,2.6-2.1c0.7-0.7,1.5-1.4,2.2-2.1
						c1.3-1.5,1.6-3.2,0.9-5c-0.2-0.6-0.5-1.2-0.8-1.7C42,13,48,11.2,54.3,11.2c5.9,0,11.5,1.6,16.5,4.5c-0.1,0-0.1,0.1-0.2,0.1
						c0,0,0,0-0.1,0c-1,0-3.9,1.1-4.5,1.5c-0.8,0.5-1.6,1-2.2,1c0.5-0.3,1-0.6,0.9-1.2s-0.7-1-1.6-1.4c-0.5-0.2-1-0.3-1.7-0.3
						c-0.6,0-1.3,0.1-1.9,0.1c-0.3,0-0.5,0.1-0.7,0.1c-2.6,0.1-4.5,1.3-6.5,3.9c-0.1,0.2-0.5,0.7-0.3,1.2c0.1,0.4,0.5,0.6,0.9,0.7
						c-0.1,0-0.1,0.1-0.2,0.1c-0.2,0.1-0.2,0.4-0.2,0.6c0.1,1.1,0.1,1.1-0.3,1.2l0,0c0,0,0,0-0.1,0c0,0,0,0-0.1,0l0,0c0,0,0,0,0,0.1
						l0,0l0,0c0,0,0,0,0,0.1c-0.3,0.6-0.8,0.7-1.7,0.8c-0.2,0-0.5,0.1-0.8,0.1c0.1-0.1,0.2-0.2,0.3-0.4c0.2-0.5-0.2-1.2-0.6-1.4l0,0
						c-0.5-0.2-0.4-0.3-0.4-0.4v-0.1c0-0.1,0.1-0.3,0.1-0.5c-0.1-0.6-0.3-1.3-0.8-1.4c-0.1,0-0.4-0.1-0.5-0.1
						c-0.4,0-0.7,0.7-0.9,0.9c0,0.1-0.1,0.1-0.1,0.2c-0.4,0.5-0.4,0.9-0.3,1.2c-0.2-0.2-0.5-0.3-0.8-0.3c-0.2,0-0.4,0.1-0.6,0.2
						c-0.5,0.3-0.9,0.9-0.8,1.6c0.1,0.6,0.6,1.1,1.3,1.1c0.3,0,0.6-0.1,0.8-0.3c0.1-0.1,0.3-0.3,0.4-0.5c0,0.1,0.1,0.1,0.1,0.2
						c0.3,0.4,1.1,0.6,1.7,0.6l0,0c0.1,0,0.2,0,0.3,0c-0.3,0.1-0.5,0.3-0.7,0.6c-0.6,0.7-0.1,1.4,0.1,1.7v0.1c0,0,0,0,0,0.1
						c-0.1,0-0.3,0-0.4-0.1c-0.2,0-0.5-0.1-0.6-0.1c-0.6,0-0.9,0-1.2,0c-0.1,0-0.1,0-0.1,0.1c-1.5,0.8-2.3,1.9-2,2.9
						c0.1,0.5,0.7,1.7,3.2,1.8c-0.1,0-0.2,0-0.3,0.1c-1.2,0.3-2.4,0.6-3.2,1.4c-0.4,0.4-0.7,1-0.9,1.6c-0.1,0.3-0.3,0.6-0.4,0.9
						c-0.1,0.2-0.3,0.3-0.5,0.5c-0.4,0.3-0.8,0.7-1.1,1.2c0,0,0,0,0,0.1c-0.4,0.9-0.5,2.2-0.5,3.3c0,0.3,0,0.6-0.1,0.9
						c-0.1,2.1,0,4.3,1.5,6.1c0.8-2,2.8-3.4,5.1-3.4c0.4,0,0.9,0.1,1.3,0.2l11.8,2.8c0.1,0,0.1,0,0.2,0.1c0.1,0,0.2,0,0.3,0.1
						c0.1,0,0.1,0,0.2,0.1l0,0c0.1,0,0.2,0.1,0.3,0.1s0.2,0.1,0.2,0.1l0,0c0.1,0,0.2,0.1,0.2,0.1c0.1,0.1,0.2,0.1,0.3,0.2
						c0.1,0,0.1,0.1,0.2,0.1l0,0c0.1,0.1,0.2,0.1,0.2,0.2c0,0,0.1,0.1,0.2,0.1l0,0c0,0,0,0,0.1,0.1s0.1,0.1,0.2,0.2l0,0l0.1,0.1l0,0
						c0.1,0.1,0.1,0.1,0.2,0.2l0,0l0,0c0.1,0.1,0.1,0.1,0.2,0.2l0,0c0,0.1,0.1,0.1,0.1,0.2c0,0.1,0.1,0.2,0.2,0.3l0,0l0.1,0.1
						c0.1,0.1,0.1,0.2,0.2,0.3l0,0c0,0,0,0.1,0.1,0.2c0,0.1,0.1,0.2,0.1,0.3s0.1,0.1,0.1,0.2c0,0.1,0.1,0.2,0.1,0.3s0.1,0.2,0.1,0.3
						l0,0c0,0.1,0,0.1,0,0.2c0,0.1,0,0.2,0,0.3s0,0.1,0,0.2c0,0.1,0,0.2,0,0.3l0,0l0,0c0,0.1,0,0.1,0,0.2l0,0c0,0.1,0,0.2,0,0.2l0,0
						l0,0c0,0.1,0,0.2,0,0.3s0,0.1,0,0.2c0,0.1,0,0.2-0.1,0.3v0.1c0,0.1,0,0.1-0.1,0.2l0,0c0,0.1,0,0.2-0.1,0.2
						c0,0.1-0.1,0.2-0.1,0.3s-0.1,0.1-0.1,0.2l0,0c0,0.1-0.1,0.2-0.2,0.3l-0.1,0.1c-0.1,0.1-0.1,0.2-0.2,0.3c0,0,0,0,0,0.1l0,0l0,0
						l0,0c-0.1,0.1-0.1,0.2-0.2,0.3l-0.1,0.1L56,63.7c0.1,0.2,0.2,0.4,0.4,0.7s0.4,0.6,0.5,1c0.2,0.4,0.3,0.8,0.4,1.1
						c0.3,1,0.6,1.4,1.8,1.4c0.1,0,0.3,0,0.4,0c3.8-0.4,6.3-3.2,7.3-5.7c0.3-0.6,0.6-0.9,1.1-1.2c0.2-0.2,0.4-0.3,0.7-0.5
						c0,0.1,0,0.1-0.1,0.2c0,0.1-0.1,0.2-0.1,0.3c-0.3,0.7-0.6,1.6-0.3,2.3c0.1,0.3,0.4,0.5,0.7,0.6c0.1,0,0.2,0.1,0.3,0.1
						c0.7,0,1.3-0.6,1.9-1.3c0.2-0.3,0.4-0.6,0.5-0.9c0-0.1,0.1-0.2,0.1-0.3c0.2-0.4,0.5-0.8,0.8-1.1c0.2-0.2,0.3-0.4,0.5-0.6
						c0.1-0.1,0.6-0.9,0.5-1.6c-0.1-0.2-0.2-0.4-0.4-0.5c-0.4-0.2-1.1-0.1-1.5,0.2c-0.2,0.1-0.4,0.3-0.5,0.5l0,0
						c-0.2,0-0.5,0-0.8,0.1s-0.6,0.3-0.8,0.5c0.1-0.7,0.1-1.3,0.1-2s-0.1-1.4,0.1-2c0.5-1.3,1.5-2.3,2.6-3.3
						c1.3-1.2,2.7-2.5,3.2-4.4c0.3-0.9,0.2-1.5-0.1-1.9c-0.4-0.6-1.2-0.6-1.9-0.6c-0.2,0-0.3,0-0.5,0s-0.3,0-0.5,0
						c-0.9,0-1.6-0.1-2-0.7c-0.8-1.1-2.3-5.4-2.3-7.1c1,0.5,1.6,2,2.1,3.5c0.6,1.6,1.2,3.1,2.4,3.5c0.7,0.2,1.5,0.1,2.4-0.5
						c1.2-0.7,3-2.6,3.1-4.3c0-0.5,0-0.9-0.2-1.3c0.6,0.2,1.1,0.2,1.7,0.3c0.8,0.1,1.6,0.2,2,0.6c0.7,0.7,0.9,2.3,1.2,3.8
						c0.4,2.2,0.7,4.3,2.3,4.8c0.3,0.1,0.6,0,0.8-0.3c0.6-1.1,0.4-2.4,0.2-3.6C86,42.6,85.8,41.7,86,41c0.3-1,0.5-1.3,0.6-1.4l0,0
						c0.2,1.5,0.3,3,0.3,4.5c0,2.5-0.3,4.9-0.8,7.3c-1.2,0.7-2.2,1.6-3.1,2.5c-0.1,0.1-0.3,0.2-0.4,0.4c-0.6,0.5-1.2,1.1-1.4,1.7
						c-0.1,0.4,0,0.6,0.1,0.7c0.2,0.2,0.4,0.3,0.7,0.3c0,0,0,0,0.1,0c-0.4,0.4-0.6,1-0.7,1.5v0.1c-0.3,0.9-0.6,1.7-1,2.4
						c-0.2,0.4-0.8,0.6-1.3,0.8c-0.4,0.1-0.7,0.2-1,0.4c-0.6,0.4-0.9,1.1-1.2,1.7V64c-0.2,0.5-0.4,0.9-0.6,1.4
						c-0.1,0.4-0.3,0.8-0.5,1.2l0,0c-0.2,0.6-0.6,1.5-0.2,2.2l0,0c-5.9,5.1-13.4,7.9-21.3,7.9c-7.6,0-14.9-2.6-20.7-7.4
						c0-0.1,0-0.2,0-0.4c0-0.4,0-0.8,0-1.2c-0.1-0.6-0.4-1-0.7-1.4s-0.6-0.7-0.6-1.2s0.2-0.6,0.6-0.8c-2,0.2-3.9,0.4-5.8,0.5
						c-1.2,0.1-2.3,0.1-3.4,0.1C30.4,74.6,41.6,81,54.2,81c20.4,0,37-16.6,37-37C91.3,23.5,74.8,6.9,54.3,6.9z M58.6,18.7
						c0.1,0,0.2,0.1,0.5,0.3c0,0.1,0,0.2,0,0.3c0,0.4,0,0.8,0.3,1.1c0,0,0,0,0.1,0.1s0.2,0.1,0.3,0.2c-0.2,0.1-0.4,0.1-0.6,0.3
						c-0.4,0.2-1.5,0.7-2,0.8C56.8,20.9,58.5,18.9,58.6,18.7z M65.4,33.3c-0.4,0.5-1,0.8-1.7,0.7l0,0c-0.2-0.2-0.7-0.5-1.2-0.7
						c-0.1,0-0.3,0-0.5,0c-0.3,0-0.5,0-0.7,0.1c-0.1,0-0.3,0.1-0.4,0.1c0,0,0,0-0.1,0c-0.3,0-0.6,0.1-0.9,0.1
						c-0.5,0.1-1,0.1-1.6,0.1c-0.2,0-0.4,0-0.6,0c-1-0.2-1.5-0.8-2.1-1.4c-0.7-0.8-1.6-1.8-3.4-1.8c0,0,0,0-0.1,0
						c-0.9,0.1-1.9,0.3-2.8,0.7c0.1-0.1,0.2-0.2,0.3-0.4l0,0l0.1-0.1c0.1-0.3,0.2-0.8,0.2-1.3v-0.1c0,0,0.1,0,0.3,0s0.4,0,0.6,0
						c0.2,0,0.4,0,0.6,0c0.2,0,0.3,0,0.4-0.1c0.5-0.2,0.9-0.3,1.4-0.3c0.6,0,1.3,0.2,1.9,0.6c0.4,0.3,0.9,0.5,1.3,0.7
						c0.1,0.1,0.3,0.1,0.4,0.2c0.1,0.1,0.2,0.1,0.3,0.3c0.1,0.2,0.3,0.5,0.7,0.6c0.1,0,0.1,0,0.2,0c0.1,0,0.5,0,0.7-0.4
						c0.1-0.3,0.1-0.3,0.3-0.4c0.1,0,0.1-0.1,0.2-0.1c0.1,0,0.1-0.1,0.1-0.1l0,0l0.1,0.1c0.5,0.7,1.1,1.5,2,1.5c0.1,0,0.2,0,0.3,0
						s0.5-0.1,0.6-0.4s0.1-0.5,0.1-0.8l0.1,0.1c0.5,0.5,0.9,0.9,1.3,1c0.3,0.1,0.7,0.2,1,0.3c0.2,0,0.7,0.1,0.8,0.2
						C65.7,32.7,65.7,32.9,65.4,33.3z M75.3,20.2c-0.2-0.2-0.4-0.5-0.7-0.6c-0.9-0.6-2.3-0.7-3.5-0.7c-0.2,0-0.4,0-0.6,0
						c-0.1,0-0.3,0-0.4,0h-0.4c-1.2,0-1.6-0.1-1.8-0.2c0-0.1,0.1-0.2,0.2-0.3c0.2-0.3,0.4-0.3,1-0.3c0.4,0,1-0.1,1.5-0.4
						c0.5,0.2,1.1,0.4,1.6,0.6c0.2,0.1,0.4,0.1,0.6,0.2c0.4,0.1,0.6,0.3,0.9,0.5l0.3,0c0.3,0.2,0.5,0.2,0.8,0.1
						c0.2,0,0.3-0.1,0.4-0.2c-0.3-0.3,0.4,0.3,1,0.9C75.9,19.9,75.6,20,75.3,20.2z"/>
				</g>
			</g>
			<g id="arrow_9_" opacity="0.5">
				<path fill="#FFFFFF" d="M60.6,52.7L60.6,52.7c0-0.1,0-0.2,0-0.2v-0.1v-0.1v-0.1v-0.1c0-0.1,0-0.1-0.1-0.2c0,0,0,0,0-0.1
					s-0.1-0.1-0.1-0.2c0,0,0,0,0-0.1l-0.1-0.1c0,0,0,0-0.1-0.1l-0.1-0.1L60,51.1c0,0,0,0-0.1-0.1l-0.1-0.1l0,0l0,0l-0.1-0.1
					c0,0-0.1,0-0.1-0.1l-0.1-0.1c0,0-0.1,0-0.1-0.1c0,0-0.1,0-0.1-0.1c0,0-0.1,0-0.1-0.1h-0.1c-0.1,0-0.1,0-0.2,0c0,0,0,0-0.1,0
					L47,47.5c-1.3-0.3-2.7,0.5-3,1.8s0.5,2.7,1.8,3l2.8,0.7C25.9,58.9,10.5,57,9,52.3c-0.7-2.1,1.2-5.4,5.5-9.2
					c0-2.3,0.3-4.7,0.7-6.9C6.3,42.8,2.5,48.8,4.2,54s8.4,7.9,19.3,7.8c1.2,0,2.4,0,3.6-0.1c7.1-0.4,15.2-1.8,23.7-4l-2.4,2.8
					c-0.9,1-0.8,2.6,0.3,3.5c0.5,0.4,1.1,0.6,1.7,0.6c0.7,0,1.3-0.3,1.8-0.9l7.9-9.2l0,0l0.1-0.1c0,0,0,0,0-0.1l0.1-0.1
					c0,0,0,0,0-0.1c0,0,0.1-0.1,0.1-0.2v-0.1c0-0.1,0-0.1,0.1-0.2v-0.1v-0.1l0,0c0-0.1,0-0.1,0-0.2v-0.1V53v-0.1v-0.1
					C60.6,52.8,60.6,52.8,60.6,52.7z"/>
				<path fill="#FFFFFF" d="M101.3,22.4c-1.7-5.2-8.4-7.9-19.3-7.8c-0.2,0-0.3,0-0.5,0c0.2,0.2,0.4,0.3,0.5,0.5
					c0.2,0.2,0.4,0.4,0.6,0.6c0.3,0.3,0.6,0.6,0.9,0.9c0.1,0.1,0.1,0.1,0.2,0.2c0.9,1,1.7,2,2.5,3c6.8,0.5,9.8,2.4,10.4,4.3
					c0.6,1.9-0.9,4.7-4.1,7.9c0.6,1.8,1,3.7,1.3,5.5C99.5,32.5,102.9,27.3,101.3,22.4z"/>
			</g>
		</g>
	</g>
</g>
</svg>
