<?xml version="1.0" encoding="utf-8"?>
<!-- Generator: Adobe Illustrator 23.0.0, SVG Export Plug-In . SVG Version: 6.00 Build 0)  -->
<svg version="1.1" id="Layer_1" xmlns="http://www.w3.org/2000/svg" xmlns:xlink="http://www.w3.org/1999/xlink" x="0px" y="0px"
	 width="815.8px" height="369.2px" viewBox="0 0 815.8 369.2" enable-background="new 0 0 815.8 369.2" xml:space="preserve">
<g>
	<path fill="#4B5B5F" d="M325.2,99.5c0.7,1.1,1.1,2.4,1.1,3.7c0,1.9-0.7,3.5-2,4.9c-1.4,1.4-3,2.1-5,2.1c-2.5,0-4.5-1.1-5.8-3.4
		l-26.3-42.7c-0.3-0.4-0.5-0.3-0.8,0l-6.8,9c-0.3,0.4-0.4,0.8-0.4,1.3v28.8c0,1.9-0.7,3.5-2,4.9c-1.4,1.4-3,2-4.8,2
		c-2,0-3.6-0.7-5-2.1c-1.4-1.4-2-3-2-4.9v-96c0-1.9,0.7-3.5,2-4.9c1.4-1.4,3-2.1,5-2.1c1.9,0,3.5,0.7,4.8,2.1c1.4,1.4,2,3,2,4.9v42
		c0,0.7,0.2,0.7,0.7,0.1l33.9-46.2c1.3-1.9,3.2-2.8,5.5-2.8c2,0,3.7,0.7,5,2.1c1.4,1.4,2,3,2,4.9c0,1.5-0.5,2.9-1.4,4.1L296,50.8
		c-0.2,0.4-0.2,0.7,0.1,1.2L325.2,99.5z"/>
	<path fill="#4B5B5F" d="M397.1,69c0,2-0.7,3.7-2,5c-1.3,1.4-3,2.1-4.9,2.1h-32.1c-0.6,0-0.8,0.2-0.8,0.7v7.1c0,3.5,1.2,6.5,3.7,9
		c2.5,2.5,5.5,3.7,9,3.7h0.6c5,0,8.7-2.2,11.2-6.6c1.3-2.4,3.3-3.7,6.1-3.7c2,0,3.6,0.7,4.9,2c1.3,1.4,2,3,2,4.9
		c0,1.2-0.3,2.4-0.8,3.4c-2.3,4.2-5.5,7.6-9.7,10.1c-4.2,2.5-8.7,3.7-13.6,3.7h-0.6c-7.4,0-13.6-2.6-18.8-7.8
		c-5.2-5.2-7.8-11.5-7.8-18.8V54.3c0-7.4,2.6-13.6,7.8-18.9c5.2-5.2,11.5-7.8,18.8-7.8h0.6c7.4,0,13.6,2.6,18.8,7.8
		c5.2,5.2,7.8,11.5,7.8,18.9V69z M383.2,61.5v-7.1c0-3.6-1.3-6.7-3.7-9.2c-2.5-2.5-5.5-3.8-9-3.8h-0.6c-3.5,0-6.5,1.3-9,3.8
		c-2.5,2.5-3.7,5.6-3.7,9.2v7.1c0,0.5,0.3,0.7,0.8,0.7h24.3C382.9,62.2,383.2,62,383.2,61.5z"/>
	<path fill="#4B5B5F" d="M432,110.1c-1.4,0-2.7-0.4-3.8-1.1c-9.3-6-14-14.7-14-25.9V7.2c0-1.9,0.7-3.5,2.1-4.9
		c1.4-1.4,3-2.1,4.9-2.1c2,0,3.6,0.7,4.9,2.1c1.3,1.4,2,3,2,4.9v75.9c0,6.1,2.6,10.9,7.8,14.3c2.1,1.4,3.1,3.4,3.1,5.8
		c0,1.9-0.7,3.5-2,4.9C435.5,109.5,433.9,110.1,432,110.1z"/>
	<path fill="#4B5B5F" d="M513.7,37l-22.2,68.2c-1,3.3-3.2,4.9-6.5,4.9c-3.4,0-5.6-1.6-6.6-4.8L456.2,37c-0.2-0.7-0.3-1.4-0.3-2.2
		c0-1.9,0.7-3.6,2.1-5c1.4-1.4,3-2.1,4.9-2.1c3.4,0,5.6,1.6,6.7,4.9l15.1,46.8c0.2,0.7,0.5,0.7,0.8,0l15.1-46.8c1-3.3,3.2-5,6.6-5
		c1.9,0,3.5,0.7,4.8,2.1c1.4,1.4,2,3,2,5C514,35.7,513.9,36.4,513.7,37z"/>
	<path fill="#4B5B5F" d="M547.1,8.3c0,2.3-0.8,4.2-2.5,5.9c-1.7,1.7-3.6,2.5-5.9,2.5c-2.3,0-4.2-0.8-5.9-2.5
		c-1.7-1.6-2.5-3.6-2.5-5.9c0-2.4,0.8-4.3,2.5-5.9c1.6-1.6,3.6-2.4,5.9-2.4c2.3,0,4.2,0.8,5.9,2.4C546.3,4,547.1,6,547.1,8.3z
		 M545.7,103.2c0,2-0.7,3.6-2,5c-1.4,1.3-3,2-4.9,2c-1.9,0-3.5-0.7-4.9-2c-1.4-1.3-2-3-2-5V34.8c0-1.9,0.7-3.5,2-4.9
		c1.4-1.4,3-2.1,4.9-2.1c1.9,0,3.5,0.7,4.9,2.1c1.4,1.4,2,3,2,4.9V103.2z"/>
	<path fill="#4B5B5F" d="M617.5,102.7c0,2-0.7,3.7-2,5c-1.4,1.4-3,2.1-5,2.1c-1.9,0-3.5-0.7-4.8-2.1c-1.4-1.4-2-3-2-5V54.3
		c0-3.6-1.3-6.6-3.8-9.1c-2.5-2.5-5.5-3.7-9-3.7h-0.6c-3.5,0-6.5,1.3-9,3.7c-2.5,2.5-3.8,5.5-3.8,9.1v48.4c0,2-0.7,3.7-2,5
		c-1.4,1.4-3,2.1-4.9,2.1c-1.9,0-3.5-0.7-4.9-2.1c-1.4-1.4-2-3-2-5V54.3c0-7.4,2.6-13.6,7.8-18.9c5.2-5.2,11.5-7.8,18.8-7.8h0.6
		c7.4,0,13.6,2.6,18.9,7.8c5.2,5.2,7.8,11.5,7.8,18.9V102.7z"/>
	<path fill="#4B5B5F" d="M346.5,234c0,1.9-0.7,3.5-2.1,4.9c-1.4,1.4-3,2.1-4.9,2.1c-1.9,0-3.5-0.7-4.9-2.1c-1.4-1.4-2-3-2-4.9v-64.8
		c0-0.1-0.1-0.2-0.3-0.3c-0.2,0-0.3,0-0.4,0.1l-19.8,40.6c-1.2,2.5-3.3,3.8-6.2,3.8c-2.9,0-5-1.3-6.2-3.8l-19.8-40.6
		c-0.1-0.1-0.2-0.1-0.4-0.1c-0.2,0.1-0.3,0.2-0.3,0.3V234c0,1.9-0.7,3.5-2,4.9c-1.4,1.4-3,2.1-4.9,2.1c-1.9,0-3.5-0.7-4.9-2.1
		c-1.4-1.4-2-3-2-4.9v-96c0-2,0.7-3.6,2-4.9c1.4-1.3,3-2,4.8-2c2.9,0,4.9,1.3,6.2,3.9l27.2,55.1c0.2,0.4,0.3,0.3,0.5-0.1l27.2-55.1
		c1.2-2.5,3.3-3.8,6.3-3.8c1.9,0,3.5,0.7,4.9,2c1.4,1.3,2.1,3,2.1,4.9V234z"/>
	<path fill="#4B5B5F" d="M417.4,214.2c0,7.4-2.6,13.7-7.8,18.9c-5.2,5.2-11.5,7.8-18.8,7.8h-0.6c-7.4,0-13.6-2.6-18.8-7.8
		c-5.2-5.2-7.8-11.5-7.8-18.9v-4.1c0-7.4,2.6-13.7,7.8-18.9c5.2-5.2,11.5-7.9,18.8-7.9h0.6c4.2,0,8.2,1,12,3c0.5,0.2,0.7,0,0.7-0.4
		v-0.6c0-3.5-1.3-6.5-3.7-9.1c-2.5-2.5-5.5-3.8-9-3.8h-0.6c-3.5,0-6.5,1.3-9,3.9c-1.3,1.4-2.9,2-4.8,2c-2,0-3.7-0.7-5-2.1
		c-1.4-1.4-2-3-2-4.9c0-2,0.7-3.7,2.1-5c5.2-5.2,11.5-7.8,18.8-7.8h0.6c7.4,0,13.6,2.6,18.8,7.8c5.2,5.2,7.8,11.5,7.8,18.9V214.2z
		 M403.6,214.2v-4.1c0-3.6-1.3-6.7-3.7-9.2c-2.5-2.5-5.5-3.8-9-3.8h-0.6c-3.5,0-6.5,1.3-9,3.8c-2.5,2.5-3.7,5.6-3.7,9.2v4.1
		c0,3.5,1.2,6.5,3.7,9c2.5,2.5,5.5,3.8,9,3.8h0.6c3.5,0,6.5-1.3,9-3.8C402.3,220.8,403.6,217.7,403.6,214.2z"/>
	<path fill="#4B5B5F" d="M474,174.9c-0.8,0-1.5-0.1-2.3-0.4l-2.4-0.8c-1.7-0.8-3.5-1.2-5.4-1.2c-3.2,0-6.2,1-9,3
		c-4.4,3.1-6.5,7.4-6.5,12.8v45.7c0,2-0.7,3.6-2,5c-1.4,1.3-3,2-5,2c-1.9,0-3.5-0.7-4.8-2c-1.4-1.3-2-3-2-5v-45.7
		c0-10.3,4.2-18.4,12.6-24.3c5.1-3.6,10.7-5.4,17-5.4c3.4,0,6.7,0.6,9.9,1.9l2.4,0.9c3.1,1,4.7,3.2,4.7,6.5c0,1.9-0.7,3.5-2.1,4.9
		C477.6,174.2,476,174.9,474,174.9z"/>
	<path fill="#4B5B5F" d="M551.9,261c0,1.9-0.7,3.5-2,4.9c-1.3,1.4-3,2-4.9,2c-1.9,0-3.5-0.7-4.9-2c-1.4-1.4-2-3-2-4.9v-23.3
		c0-0.5-0.2-0.6-0.7-0.4c-3.8,2-7.8,3-12,3h-0.6c-7.4,0-13.6-2.6-18.8-7.8c-5.2-5.2-7.8-11.5-7.8-18.9v-28.7
		c0-7.4,2.6-13.6,7.8-18.9c5.2-5.2,11.5-7.8,18.8-7.8h0.6c7.4,0,13.6,2.6,18.8,7.8c5.2,5.2,7.8,11.5,7.8,18.9V261z M538.1,213.4
		v-28.8c0-3.5-1.3-6.5-3.7-9c-2.5-2.5-5.5-3.8-9-3.8h-0.6c-3.5,0-6.5,1.3-9,3.8c-2.5,2.5-3.7,5.5-3.7,9v28.8c0,3.6,1.2,6.6,3.7,9.1
		c2.5,2.5,5.5,3.8,9,3.8h0.6c3.5,0,6.5-1.3,9-3.8C536.8,220.1,538.1,217,538.1,213.4z"/>
	<path fill="#4B5B5F" d="M622.9,214.5c0,7.4-2.6,13.6-7.8,18.8c-5.2,5.2-11.5,7.8-18.8,7.8h-0.6c-7.4,0-13.6-2.6-18.8-7.8
		c-5.2-5.2-7.8-11.5-7.8-18.8v-49c0-1.9,0.7-3.5,2-4.9c1.3-1.4,3-2.1,4.9-2.1c1.9,0,3.5,0.7,4.9,2.1c1.4,1.4,2,3,2,4.9v49
		c0,3.5,1.2,6.5,3.7,9c2.5,2.5,5.5,3.8,9,3.8h0.6c3.5,0,6.5-1.3,9-3.8c2.5-2.5,3.7-5.5,3.7-9v-49c0-1.9,0.7-3.5,2-4.9
		c1.4-1.4,3-2.1,4.9-2.1c2,0,3.6,0.7,4.9,2.1c1.3,1.4,2,3,2,4.9V214.5z"/>
	<path fill="#4B5B5F" d="M693.9,199.7c0,2-0.7,3.7-2,5c-1.3,1.4-3,2-4.9,2h-32.1c-0.6,0-0.8,0.2-0.8,0.7v7.1c0,3.5,1.2,6.5,3.7,9
		c2.5,2.5,5.5,3.7,9,3.7h0.6c5,0,8.7-2.2,11.2-6.6c1.3-2.5,3.3-3.7,6.1-3.7c2,0,3.6,0.7,4.9,2c1.3,1.4,2,3,2,4.9
		c0,1.2-0.3,2.4-0.8,3.4c-2.3,4.2-5.5,7.6-9.7,10.1c-4.2,2.5-8.7,3.7-13.6,3.7h-0.6c-7.4,0-13.6-2.6-18.8-7.8
		c-5.2-5.2-7.8-11.5-7.8-18.8V185c0-7.4,2.6-13.6,7.8-18.9c5.2-5.2,11.5-7.8,18.8-7.8h0.6c7.4,0,13.6,2.6,18.8,7.8
		c5.2,5.2,7.8,11.5,7.8,18.9V199.7z M680,192.2v-7.1c0-3.6-1.3-6.7-3.7-9.2c-2.5-2.5-5.5-3.8-9-3.8h-0.6c-3.5,0-6.5,1.3-9,3.8
		c-2.5,2.5-3.7,5.6-3.7,9.2v7.1c0,0.5,0.3,0.7,0.8,0.7h24.3C679.7,192.9,680,192.7,680,192.2z"/>
	<path fill="#4B5B5F" d="M755.8,224.5c-1.3,5-4,9-8.1,12.1c-4.1,3.1-8.7,4.6-13.8,4.6h-0.4c-8.7,0-15.7-3.5-21.1-10.5
		c-0.9-1.2-1.4-2.6-1.4-4.2c0-2.3,0.9-4.1,2.7-5.5c1.2-0.9,2.7-1.4,4.3-1.4c2.3,0,4.1,0.9,5.5,2.7c2.6,3.3,5.9,4.9,10.1,4.9h0.4
		c2.6,0,4.7-0.9,6.3-2.6c1.7-1.7,2.5-3.9,2.5-6.4c0-3.3-1.5-5.8-4.4-7.5l-16.3-9.9c-7.4-4.4-11.2-10.9-11.2-19.4
		c0-2.2,0.3-4.3,0.8-6.4c1.4-5,4.1-9,8.1-12.1c4-3.1,8.6-4.6,13.7-4.6h0.4c8.7,0,15.8,3.5,21.1,10.6c0.9,1.3,1.4,2.7,1.4,4.2
		c0,2.4-0.9,4.2-2.8,5.5c-1.2,0.9-2.6,1.4-4.1,1.4c-2.4,0-4.2-0.9-5.7-2.7c-2.5-3.4-5.9-5.1-10-5.1h-0.4c-2.5,0-4.6,0.9-6.3,2.6
		c-1.7,1.7-2.5,3.9-2.5,6.4c0,3.3,1.5,5.8,4.4,7.5l16.4,10c7.4,4.4,11,10.9,11,19.4C756.6,220.3,756.4,222.4,755.8,224.5z"/>
</g>
<g>
	<path fill="#4B5B5F" d="M321.5,299.3L308.8,348c-0.3,1-1,1.6-2,1.6c-1,0-1.7-0.5-2-1.6l-10.6-40.6c-0.1-0.1-0.2-0.2-0.3-0.2
		c-0.1,0.1-0.1,0.1-0.2,0.2L283,347.9c-0.3,1.1-1,1.6-2,1.6c-1,0-1.6-0.5-2-1.6l-12.7-48.7c-0.4-1.3,0.1-2.2,1.4-2.5
		c1.3-0.4,2,0.1,2.3,1.5l10.7,40.6c0,0.1,0.1,0.2,0.2,0.2c0.2,0,0.2-0.1,0.2-0.2l10.7-40.6c0.2-1,0.9-1.5,1.9-1.5
		c1.1,0,1.7,0.5,2,1.5l10.7,40.6c0,0.1,0.1,0.2,0.2,0.2c0.2,0,0.2-0.1,0.2-0.2l10.7-40.6c0.3-1.4,1.1-1.9,2.4-1.5
		C321.5,297.1,321.9,297.9,321.5,299.3z"/>
	<path fill="#4B5B5F" d="M366,323.2c0,1.3-0.7,2-2,2h-26.2c-0.3,0-0.5,0.2-0.5,0.5v8c0,3.4,1.2,6.2,3.5,8.6c2.4,2.4,5.2,3.5,8.6,3.5
		h0.4c4.8,0,8.3-2.1,10.6-6.4c0.6-1.2,1.5-1.4,2.7-0.7c1.1,0.6,1.4,1.5,0.7,2.6c-3.1,5.6-7.8,8.4-14.1,8.4h-0.4
		c-4.4,0-8.2-1.6-11.3-4.7c-3.1-3.1-4.7-6.9-4.7-11.3v-21.1c0-4.4,1.6-8.2,4.7-11.4c3.1-3.1,6.9-4.7,11.3-4.7h0.4
		c4.4,0,8.2,1.6,11.4,4.7c3.1,3.1,4.7,6.9,4.7,11.4V323.2z M362.1,320.7v-8.2c0-3.4-1.2-6.3-3.5-8.6c-2.4-2.4-5.2-3.5-8.6-3.5h-0.4
		c-3.4,0-6.2,1.2-8.6,3.5c-2.4,2.4-3.5,5.2-3.5,8.6v8.2c0,0.3,0.2,0.5,0.5,0.5h23.6C361.9,321.2,362.1,321.1,362.1,320.7z"/>
	<path fill="#4B5B5F" d="M410.5,333.4c0,4.4-1.6,8.2-4.7,11.4c-3.1,3.1-6.9,4.7-11.4,4.7H394c-4.4,0-8.2-1.6-11.3-4.7
		c-3.1-3.2-4.7-6.9-4.7-11.4v-54.6c0-1.3,0.7-2,2-2s2,0.7,2,2v22.9c0,0.4,0.1,0.4,0.4,0.2c3.2-3.4,7.2-5.1,11.8-5.1h0.4
		c4.4,0,8.2,1.6,11.4,4.7c3.1,3.1,4.7,6.9,4.7,11.4V333.4z M406.6,333.4v-20.6c0-3.3-1.2-6.2-3.5-8.5c-2.4-2.4-5.2-3.6-8.6-3.6H394
		c-3.4,0-6.2,1.2-8.6,3.6c-2.4,2.4-3.5,5.2-3.5,8.5v20.6c0,3.4,1.2,6.3,3.5,8.6c2.4,2.4,5.2,3.6,8.6,3.6h0.4c3.4,0,6.2-1.2,8.6-3.6
		C405.4,339.7,406.6,336.8,406.6,333.4z"/>
	<path fill="#4B5B5F" d="M483,333.4c0,4.4-1.6,8.2-4.7,11.4c-3.1,3.2-6.9,4.7-11.4,4.7h-0.4c-4.4,0-8.2-1.6-11.3-4.7
		c-3.1-3.2-4.7-6.9-4.7-11.4v-20.6c0-4.4,1.6-8.2,4.7-11.4c3.1-3.1,6.9-4.7,11.3-4.7h0.4c4.6,0,8.5,1.7,11.8,5.1
		c0.2,0.2,0.4,0.2,0.4-0.2v-22.9c0-1.3,0.7-2,2-2c1.3,0,2,0.7,2,2V333.4z M479,333.4v-20.6c0-3.3-1.2-6.2-3.5-8.5
		c-2.4-2.4-5.2-3.6-8.6-3.6h-0.4c-3.4,0-6.2,1.2-8.6,3.6c-2.4,2.4-3.5,5.2-3.5,8.5v20.6c0,3.4,1.2,6.3,3.5,8.6
		c2.4,2.4,5.2,3.6,8.6,3.6h0.4c3.4,0,6.2-1.2,8.6-3.6C477.9,339.7,479,336.8,479,333.4z"/>
	<path fill="#4B5B5F" d="M527.4,323.2c0,1.3-0.7,2-2,2h-26.2c-0.3,0-0.5,0.2-0.5,0.5v8c0,3.4,1.2,6.2,3.5,8.6
		c2.4,2.4,5.2,3.5,8.6,3.5h0.4c4.8,0,8.3-2.1,10.6-6.4c0.6-1.2,1.5-1.4,2.7-0.7c1.1,0.6,1.4,1.5,0.7,2.6c-3.1,5.6-7.8,8.4-14.1,8.4
		H511c-4.4,0-8.2-1.6-11.3-4.7c-3.1-3.1-4.7-6.9-4.7-11.3v-21.1c0-4.4,1.6-8.2,4.7-11.4c3.1-3.1,6.9-4.7,11.3-4.7h0.4
		c4.4,0,8.2,1.6,11.4,4.7c3.1,3.1,4.7,6.9,4.7,11.4V323.2z M523.5,320.7v-8.2c0-3.4-1.2-6.3-3.5-8.6c-2.4-2.4-5.2-3.5-8.6-3.5H511
		c-3.4,0-6.2,1.2-8.6,3.5c-2.4,2.4-3.5,5.2-3.5,8.6v8.2c0,0.3,0.2,0.5,0.5,0.5h23.6C523.3,321.2,523.5,321.1,523.5,320.7z"/>
	<path fill="#4B5B5F" d="M574.8,299.4L559,348.1c-0.3,0.9-0.9,1.4-1.9,1.4c-0.9,0-1.6-0.4-1.9-1.3l-15.8-48.9
		c-0.4-1.3,0-2.2,1.2-2.6c1.3-0.4,2.1,0,2.5,1.4l13.8,42.2c0.1,0.4,0.3,0.4,0.4,0l13.8-42.2c0.4-1.4,1.2-1.8,2.5-1.4
		C574.8,297.2,575.2,298.1,574.8,299.4z"/>
	<path fill="#4B5B5F" d="M619.3,323.2c0,1.3-0.7,2-2,2h-26.2c-0.3,0-0.5,0.2-0.5,0.5v8c0,3.4,1.2,6.2,3.5,8.6
		c2.4,2.4,5.2,3.5,8.6,3.5h0.4c4.8,0,8.3-2.1,10.6-6.4c0.6-1.2,1.5-1.4,2.7-0.7c1.1,0.6,1.4,1.5,0.7,2.6c-3.1,5.6-7.8,8.4-14.1,8.4
		h-0.4c-4.4,0-8.2-1.6-11.3-4.7c-3.1-3.1-4.7-6.9-4.7-11.3v-21.1c0-4.4,1.6-8.2,4.7-11.4c3.1-3.1,6.9-4.7,11.3-4.7h0.4
		c4.4,0,8.2,1.6,11.4,4.7c3.1,3.1,4.7,6.9,4.7,11.4V323.2z M615.4,320.7v-8.2c0-3.4-1.2-6.3-3.5-8.6c-2.4-2.4-5.2-3.5-8.6-3.5h-0.4
		c-3.4,0-6.2,1.2-8.6,3.5c-2.4,2.4-3.5,5.2-3.5,8.6v8.2c0,0.3,0.2,0.5,0.5,0.5h23.6C615.2,321.2,615.4,321.1,615.4,320.7z"/>
	<path fill="#4B5B5F" d="M642.9,348.6c-0.7,1.1-1.7,1.2-2.7,0.6c-5.8-3.8-8.7-9.1-8.7-16v-54.3c0-1.3,0.6-2,1.9-2c1.3,0,2,0.7,2,2
		v54.3c0,5.4,2.3,9.6,6.9,12.6C643.4,346.5,643.6,347.5,642.9,348.6z"/>
	<path fill="#4B5B5F" d="M687.5,333.6c0,4.4-1.6,8.2-4.7,11.3c-3.1,3.1-6.9,4.7-11.4,4.7h-0.4c-4.4,0-8.2-1.6-11.3-4.7
		c-3.1-3.1-4.7-6.9-4.7-11.3v-21.1c0-4.4,1.6-8.2,4.7-11.4c3.1-3.1,6.9-4.7,11.3-4.7h0.4c4.4,0,8.2,1.6,11.4,4.7
		c3.1,3.1,4.7,6.9,4.7,11.4V333.6z M683.6,333.6v-21.2c0-3.4-1.2-6.2-3.5-8.6c-2.4-2.3-5.2-3.5-8.6-3.5h-0.4c-3.4,0-6.2,1.2-8.6,3.5
		c-2.4,2.3-3.5,5.2-3.5,8.6v21.2c0,3.4,1.2,6.2,3.5,8.6c2.4,2.4,5.2,3.6,8.6,3.6h0.4c3.4,0,6.2-1.2,8.6-3.6
		C682.4,339.9,683.6,337,683.6,333.6z"/>
	<path fill="#4B5B5F" d="M732,333.4c0,4.4-1.6,8.2-4.7,11.4c-3.1,3.1-6.9,4.7-11.4,4.7h-0.4c-4.6,0-8.5-1.7-11.8-5.2
		c-0.2-0.2-0.4-0.2-0.4,0.2v22.8c0,1.3-0.7,2-2,2s-2-0.7-2-2v-54.5c0-4.4,1.6-8.2,4.7-11.4c3.1-3.1,6.9-4.7,11.3-4.7h0.4
		c4.4,0,8.2,1.6,11.4,4.7c3.1,3.1,4.7,6.9,4.7,11.4V333.4z M728.1,333.4v-20.6c0-3.3-1.2-6.2-3.5-8.5c-2.4-2.4-5.2-3.6-8.6-3.6h-0.4
		c-3.4,0-6.2,1.2-8.6,3.6c-2.4,2.4-3.5,5.2-3.5,8.5v20.6c0,3.4,1.2,6.3,3.5,8.6c2.4,2.4,5.2,3.6,8.6,3.6h0.4c3.4,0,6.2-1.2,8.6-3.6
		C726.9,339.7,728.1,336.8,728.1,333.4z"/>
	<path fill="#4B5B5F" d="M776.5,323.2c0,1.3-0.7,2-2,2h-26.2c-0.3,0-0.5,0.2-0.5,0.5v8c0,3.4,1.2,6.2,3.5,8.6
		c2.4,2.4,5.2,3.5,8.6,3.5h0.4c4.8,0,8.3-2.1,10.6-6.4c0.6-1.2,1.5-1.4,2.7-0.7c1.1,0.6,1.4,1.5,0.7,2.6c-3.1,5.6-7.8,8.4-14.1,8.4
		H760c-4.4,0-8.2-1.6-11.3-4.7c-3.1-3.1-4.7-6.9-4.7-11.3v-21.1c0-4.4,1.6-8.2,4.7-11.4c3.1-3.1,6.9-4.7,11.3-4.7h0.4
		c4.4,0,8.2,1.6,11.4,4.7c3.1,3.1,4.7,6.9,4.7,11.4V323.2z M772.5,320.7v-8.2c0-3.4-1.2-6.3-3.5-8.6c-2.4-2.4-5.2-3.5-8.6-3.5H760
		c-3.4,0-6.2,1.2-8.6,3.5c-2.4,2.4-3.5,5.2-3.5,8.6v8.2c0,0.3,0.2,0.5,0.5,0.5H772C772.4,321.2,772.5,321.1,772.5,320.7z"/>
	<path fill="#4B5B5F" d="M815.6,301c-0.5,1.2-1.4,1.6-2.6,1.1l-1.7-0.6c-1.6-0.6-3.2-0.9-4.8-0.9c-2.9,0-5.7,0.8-8.2,2.5
		c-4,2.9-6,6.8-6,11.6v32.7c0,1.3-0.6,2-1.9,2c-1.3,0-2-0.7-2-2v-32.7c0-6.3,2.6-11.2,7.8-14.8c3.1-2.2,6.5-3.4,10.3-3.4
		c2.1,0,4.2,0.4,6.3,1.1l1.7,0.6C815.6,298.9,816,299.8,815.6,301z"/>
</g>
<g>
	<path fill="#FFCE08" d="M196.4,27.8l-55.3,58.8c-5.6,6-14.9,15.9-20.5,21.9l-54.2,57.7c0,0,85.3-37.9,85.3-37.9
		c3-1.3,5.4-3.8,6.7-6.9C166.3,101.7,196.4,27.8,196.4,27.8C196.4,27.8,196.4,27.8,196.4,27.8z"/>
</g>
<g>
	<path fill="#28B9EC" d="M196.4,324.3L66.4,186c0,0,0,0,0,0c0,0,66.8,29.7,85.3,37.9c3,1.3,5.4,3.8,6.6,6.8L196.4,324.3
		C196.4,324.3,196.4,324.3,196.4,324.3z"/>
</g>
<g>
	<path fill="#F05624" d="M196.4,17.8L184.5,27c0,0,0,0,0,0L4.9,166.8c-6.5,5.1-6.5,13.4,0,18.4l179.7,140.1c0,0,0,0,0,0l11.8,9.2
		c0,0-150-158.4-150-158.4S196.4,17.8,196.4,17.8z"/>
</g>
<g>
	<polygon fill="#50B748" points="155.9,219.3 56.5,176.2 155.8,132.6 194.4,176.2 	"/>
</g>
</svg>
